<?xml version="1.0" encoding="UTF-8" standalone="no"?>
<!DOCTYPE svg PUBLIC "-//W3C//DTD SVG 1.1//EN"
 "http://www.w3.org/Graphics/SVG/1.1/DTD/svg11.dtd">
<!-- Generated by graphviz version 2.40.1 (20161225.0304)
 -->
<!-- Title: hdb_catalog.hdb_scheduled_event_invocation_logs Pages: 1 -->
<svg width="1178pt" height="802pt"
 viewBox="0.00 0.00 1178.00 802.00" xmlns="http://www.w3.org/2000/svg" xmlns:xlink="http://www.w3.org/1999/xlink">
<g id="graph0" class="graph" transform="scale(1 1) rotate(0) translate(4 798)">
<title>hdb_catalog.hdb_scheduled_event_invocation_logs</title>
<polygon fill="#ffffff" stroke="transparent" points="-4,4 -4,-798 1174,-798 1174,4 -4,4"/>
<!-- hdb_catalog.hdb_scheduled_event_invocation_logs -->
<g id="node1" class="node">
<title>hdb_catalog.hdb_scheduled_event_invocation_logs</title>
<polygon fill="#efefef" stroke="transparent" points="600,-712.5 600,-747.5 1124,-747.5 1124,-712.5 600,-712.5"/>
<polygon fill="none" stroke="#000000" points="600,-712.5 600,-747.5 1124,-747.5 1124,-712.5 600,-712.5"/>
<text text-anchor="start" x="606.7871" y="-725.3" font-family="Arial Bold" font-size="18.00" fill="#000000">hdb_catalog.hdb_scheduled_event_invocation_logs</text>
<text text-anchor="start" x="1019.9591" y="-725.3" font-family="Arial" font-size="14.00" fill="#000000"> </text>
<text text-anchor="start" x="1023.8497" y="-725.3" font-family="Arial" font-size="14.00" fill="#666666">[BASE TABLE]</text>
<polygon fill="none" stroke="#000000" points="600,-682.5 600,-712.5 1124,-712.5 1124,-682.5 600,-682.5"/>
<text text-anchor="start" x="607" y="-693.9" font-family="Arial" font-size="14.00" fill="#000000">id </text>
<text text-anchor="start" x="621.7798" y="-693.9" font-family="Arial" font-size="14.00" fill="#666666">[text]</text>
<polygon fill="none" stroke="#000000" points="600,-652.5 600,-682.5 1124,-682.5 1124,-652.5 600,-652.5"/>
<text text-anchor="start" x="607" y="-663.9" font-family="Arial" font-size="14.00" fill="#000000">event_id </text>
<text text-anchor="start" x="663.8008" y="-663.9" font-family="Arial" font-size="14.00" fill="#666666">[text]</text>
<polygon fill="none" stroke="#000000" points="600,-622.5 600,-652.5 1124,-652.5 1124,-622.5 600,-622.5"/>
<text text-anchor="start" x="607" y="-633.9" font-family="Arial" font-size="14.00" fill="#000000">status </text>
<text text-anchor="start" x="648.237" y="-633.9" font-family="Arial" font-size="14.00" fill="#666666">[integer]</text>
<polygon fill="none" stroke="#000000" points="600,-592.5 600,-622.5 1124,-622.5 1124,-592.5 600,-592.5"/>
<text text-anchor="start" x="607" y="-603.9" font-family="Arial" font-size="14.00" fill="#000000">request </text>
<text text-anchor="start" x="657.5722" y="-603.9" font-family="Arial" font-size="14.00" fill="#666666">[json]</text>
<polygon fill="none" stroke="#000000" points="600,-562.5 600,-592.5 1124,-592.5 1124,-562.5 600,-562.5"/>
<text text-anchor="start" x="607" y="-573.9" font-family="Arial" font-size="14.00" fill="#000000">response </text>
<text text-anchor="start" x="668.4642" y="-573.9" font-family="Arial" font-size="14.00" fill="#666666">[json]</text>
<polygon fill="none" stroke="#000000" points="600,-532.5 600,-562.5 1124,-562.5 1124,-532.5 600,-532.5"/>
<text text-anchor="start" x="607" y="-543.9" font-family="Arial" font-size="14.00" fill="#000000">created_at </text>
<text text-anchor="start" x="677.028" y="-543.9" font-family="Arial" font-size="14.00" fill="#666666">[timestamp with time zone]</text>
<polygon fill="none" stroke="#000000" stroke-width="3" points="598.5,-531.5 598.5,-749.5 1125.5,-749.5 1125.5,-531.5 598.5,-531.5"/>
</g>
<!-- hdb_catalog.hdb_scheduled_events -->
<g id="node2" class="node">
<title>hdb_catalog.hdb_scheduled_events</title>
<polygon fill="#efefef" stroke="transparent" points="662,-372.5 662,-407.5 1061,-407.5 1061,-372.5 662,-372.5"/>
<polygon fill="none" stroke="#000000" points="662,-372.5 662,-407.5 1061,-407.5 1061,-372.5 662,-372.5"/>
<text text-anchor="start" x="668.8074" y="-385.3" font-family="Arial Bold" font-size="18.00" fill="#000000">hdb_catalog.hdb_scheduled_events</text>
<text text-anchor="start" x="956.9388" y="-385.3" font-family="Arial" font-size="14.00" fill="#000000"> </text>
<text text-anchor="start" x="960.8294" y="-385.3" font-family="Arial" font-size="14.00" fill="#666666">[BASE TABLE]</text>
<polygon fill="none" stroke="#000000" points="662,-342.5 662,-372.5 1061,-372.5 1061,-342.5 662,-342.5"/>
<text text-anchor="start" x="669" y="-353.9" font-family="Arial" font-size="14.00" fill="#000000">id </text>
<text text-anchor="start" x="683.7798" y="-353.9" font-family="Arial" font-size="14.00" fill="#666666">[text]</text>
<polygon fill="none" stroke="#000000" points="662,-312.5 662,-342.5 1061,-342.5 1061,-312.5 662,-312.5"/>
<text text-anchor="start" x="669" y="-323.9" font-family="Arial" font-size="14.00" fill="#000000">webhook_conf </text>
<text text-anchor="start" x="763.1486" y="-323.9" font-family="Arial" font-size="14.00" fill="#666666">[json]</text>
<polygon fill="none" stroke="#000000" points="662,-282.5 662,-312.5 1061,-312.5 1061,-282.5 662,-282.5"/>
<text text-anchor="start" x="669" y="-293.9" font-family="Arial" font-size="14.00" fill="#000000">scheduled_time </text>
<text text-anchor="start" x="770.9158" y="-293.9" font-family="Arial" font-size="14.00" fill="#666666">[timestamp with time zone]</text>
<polygon fill="none" stroke="#000000" points="662,-252.5 662,-282.5 1061,-282.5 1061,-252.5 662,-252.5"/>
<text text-anchor="start" x="669" y="-263.9" font-family="Arial" font-size="14.00" fill="#000000">retry_conf </text>
<text text-anchor="start" x="735.1234" y="-263.9" font-family="Arial" font-size="14.00" fill="#666666">[json]</text>
<polygon fill="none" stroke="#000000" points="662,-222.5 662,-252.5 1061,-252.5 1061,-222.5 662,-222.5"/>
<text text-anchor="start" x="669" y="-233.9" font-family="Arial" font-size="14.00" fill="#000000">payload </text>
<text text-anchor="start" x="721.9102" y="-233.9" font-family="Arial" font-size="14.00" fill="#666666">[json]</text>
<polygon fill="none" stroke="#000000" points="662,-192.5 662,-222.5 1061,-222.5 1061,-192.5 662,-192.5"/>
<text text-anchor="start" x="669" y="-203.9" font-family="Arial" font-size="14.00" fill="#000000">header_conf </text>
<text text-anchor="start" x="750.7026" y="-203.9" font-family="Arial" font-size="14.00" fill="#666666">[json]</text>
<polygon fill="none" stroke="#000000" points="662,-162.5 662,-192.5 1061,-192.5 1061,-162.5 662,-162.5"/>
<text text-anchor="start" x="669" y="-173.9" font-family="Arial" font-size="14.00" fill="#000000">status </text>
<text text-anchor="start" x="710.237" y="-173.9" font-family="Arial" font-size="14.00" fill="#666666">[text]</text>
<polygon fill="none" stroke="#000000" points="662,-132.5 662,-162.5 1061,-162.5 1061,-132.5 662,-132.5"/>
<text text-anchor="start" x="669" y="-143.9" font-family="Arial" font-size="14.00" fill="#000000">tries </text>
<text text-anchor="start" x="699.331" y="-143.9" font-family="Arial" font-size="14.00" fill="#666666">[integer]</text>
<polygon fill="none" stroke="#000000" points="662,-102.5 662,-132.5 1061,-132.5 1061,-102.5 662,-102.5"/>
<text text-anchor="start" x="669" y="-113.9" font-family="Arial" font-size="14.00" fill="#000000">created_at </text>
<text text-anchor="start" x="739.028" y="-113.9" font-family="Arial" font-size="14.00" fill="#666666">[timestamp with time zone]</text>
<polygon fill="none" stroke="#000000" points="662,-72.5 662,-102.5 1061,-102.5 1061,-72.5 662,-72.5"/>
<text text-anchor="start" x="669" y="-83.9" font-family="Arial" font-size="14.00" fill="#000000">next_retry_at </text>
<text text-anchor="start" x="754.5792" y="-83.9" font-family="Arial" font-size="14.00" fill="#666666">[timestamp with time zone]</text>
<polygon fill="none" stroke="#000000" points="662,-42.5 662,-72.5 1061,-72.5 1061,-42.5 662,-42.5"/>
<text text-anchor="start" x="669" y="-53.9" font-family="Arial" font-size="14.00" fill="#000000">comment </text>
<text text-anchor="start" x="730.4502" y="-53.9" font-family="Arial" font-size="14.00" fill="#666666">[text]</text>
</g>
<!-- hdb_catalog.hdb_scheduled_event_invocation_logs&#45;&gt;hdb_catalog.hdb_scheduled_events -->
<g id="edge1" class="edge">
<title>hdb_catalog.hdb_scheduled_event_invocation_logs:event_id&#45;&gt;hdb_catalog.hdb_scheduled_events:id</title>
<path fill="none" stroke="#000000" d="M589.8233,-666.7805C522.1492,-656.7009 547.9742,-543.2469 600,-487 669.774,-411.5649 991.226,-526.4351 1061,-451 1089.2172,-420.4934 1102.5556,-357.5 1061,-357.5"/>
<polygon fill="#000000" stroke="#000000" points="590.0249,-666.7947 599.6826,-671.9888 595.0124,-667.1473 600,-667.5 600,-667.5 600,-667.5 595.0124,-667.1473 600.3174,-663.0112 590.0249,-666.7947 590.0249,-666.7947"/>
<text text-anchor="start" x="6.625" y="-677.5" font-family="Arial" font-size="10.00" fill="#000000">FOREIGN KEY (event_id) REFERENCES hdb_catalog.hdb_scheduled_events(id) ON UPDATE CASCADE ON DELETE CASCADE</text>
</g>
</g>
</svg>
