<?xml version="1.0" encoding="UTF-8" standalone="no"?>
<!DOCTYPE svg PUBLIC "-//W3C//DTD SVG 1.1//EN"
 "http://www.w3.org/Graphics/SVG/1.1/DTD/svg11.dtd">
<!-- Generated by graphviz version 2.40.1 (20161225.0304)
 -->
<!-- Title: hdb_catalog.hdb_cron_event_invocation_logs Pages: 1 -->
<svg width="1106pt" height="682pt"
 viewBox="0.00 0.00 1105.50 682.00" xmlns="http://www.w3.org/2000/svg" xmlns:xlink="http://www.w3.org/1999/xlink">
<g id="graph0" class="graph" transform="scale(1 1) rotate(0) translate(4 678)">
<title>hdb_catalog.hdb_cron_event_invocation_logs</title>
<polygon fill="#ffffff" stroke="transparent" points="-4,4 -4,-678 1101.5,-678 1101.5,4 -4,4"/>
<!-- hdb_catalog.hdb_cron_event_invocation_logs -->
<g id="node1" class="node">
<title>hdb_catalog.hdb_cron_event_invocation_logs</title>
<polygon fill="#efefef" stroke="transparent" points="46.5,-592.5 46.5,-627.5 523.5,-627.5 523.5,-592.5 46.5,-592.5"/>
<polygon fill="none" stroke="#000000" points="46.5,-592.5 46.5,-627.5 523.5,-627.5 523.5,-592.5 46.5,-592.5"/>
<text text-anchor="start" x="53.3005" y="-605.3" font-family="Arial Bold" font-size="18.00" fill="#000000">hdb_catalog.hdb_cron_event_invocation_logs</text>
<text text-anchor="start" x="419.4457" y="-605.3" font-family="Arial" font-size="14.00" fill="#000000"> </text>
<text text-anchor="start" x="423.3363" y="-605.3" font-family="Arial" font-size="14.00" fill="#666666">[BASE TABLE]</text>
<polygon fill="none" stroke="#000000" points="46.5,-562.5 46.5,-592.5 523.5,-592.5 523.5,-562.5 46.5,-562.5"/>
<text text-anchor="start" x="53.5" y="-573.9" font-family="Arial" font-size="14.00" fill="#000000">id </text>
<text text-anchor="start" x="68.2798" y="-573.9" font-family="Arial" font-size="14.00" fill="#666666">[text]</text>
<polygon fill="none" stroke="#000000" points="46.5,-532.5 46.5,-562.5 523.5,-562.5 523.5,-532.5 46.5,-532.5"/>
<text text-anchor="start" x="53.5" y="-543.9" font-family="Arial" font-size="14.00" fill="#000000">event_id </text>
<text text-anchor="start" x="110.3008" y="-543.9" font-family="Arial" font-size="14.00" fill="#666666">[text]</text>
<polygon fill="none" stroke="#000000" points="46.5,-502.5 46.5,-532.5 523.5,-532.5 523.5,-502.5 46.5,-502.5"/>
<text text-anchor="start" x="53.5" y="-513.9" font-family="Arial" font-size="14.00" fill="#000000">status </text>
<text text-anchor="start" x="94.737" y="-513.9" font-family="Arial" font-size="14.00" fill="#666666">[integer]</text>
<polygon fill="none" stroke="#000000" points="46.5,-472.5 46.5,-502.5 523.5,-502.5 523.5,-472.5 46.5,-472.5"/>
<text text-anchor="start" x="53.5" y="-483.9" font-family="Arial" font-size="14.00" fill="#000000">request </text>
<text text-anchor="start" x="104.0722" y="-483.9" font-family="Arial" font-size="14.00" fill="#666666">[json]</text>
<polygon fill="none" stroke="#000000" points="46.5,-442.5 46.5,-472.5 523.5,-472.5 523.5,-442.5 46.5,-442.5"/>
<text text-anchor="start" x="53.5" y="-453.9" font-family="Arial" font-size="14.00" fill="#000000">response </text>
<text text-anchor="start" x="114.9642" y="-453.9" font-family="Arial" font-size="14.00" fill="#666666">[json]</text>
<polygon fill="none" stroke="#000000" points="46.5,-412.5 46.5,-442.5 523.5,-442.5 523.5,-412.5 46.5,-412.5"/>
<text text-anchor="start" x="53.5" y="-423.9" font-family="Arial" font-size="14.00" fill="#000000">created_at </text>
<text text-anchor="start" x="123.528" y="-423.9" font-family="Arial" font-size="14.00" fill="#666666">[timestamp with time zone]</text>
<polygon fill="none" stroke="#000000" stroke-width="3" points="44.5,-411.5 44.5,-629.5 524.5,-629.5 524.5,-411.5 44.5,-411.5"/>
</g>
<!-- hdb_catalog.hdb_cron_events -->
<g id="node2" class="node">
<title>hdb_catalog.hdb_cron_events</title>
<polygon fill="#efefef" stroke="transparent" points="109.5,-252.5 109.5,-287.5 461.5,-287.5 461.5,-252.5 109.5,-252.5"/>
<polygon fill="none" stroke="#000000" points="109.5,-252.5 109.5,-287.5 461.5,-287.5 461.5,-252.5 109.5,-252.5"/>
<text text-anchor="start" x="116.3208" y="-265.3" font-family="Arial Bold" font-size="18.00" fill="#000000">hdb_catalog.hdb_cron_events</text>
<text text-anchor="start" x="357.4254" y="-265.3" font-family="Arial" font-size="14.00" fill="#000000"> </text>
<text text-anchor="start" x="361.316" y="-265.3" font-family="Arial" font-size="14.00" fill="#666666">[BASE TABLE]</text>
<polygon fill="none" stroke="#000000" points="109.5,-222.5 109.5,-252.5 461.5,-252.5 461.5,-222.5 109.5,-222.5"/>
<text text-anchor="start" x="116.5" y="-233.9" font-family="Arial" font-size="14.00" fill="#000000">id </text>
<text text-anchor="start" x="131.2798" y="-233.9" font-family="Arial" font-size="14.00" fill="#666666">[text]</text>
<polygon fill="none" stroke="#000000" points="109.5,-192.5 109.5,-222.5 461.5,-222.5 461.5,-192.5 109.5,-192.5"/>
<text text-anchor="start" x="116.5" y="-203.9" font-family="Arial" font-size="14.00" fill="#000000">trigger_name </text>
<text text-anchor="start" x="202.8478" y="-203.9" font-family="Arial" font-size="14.00" fill="#666666">[text]</text>
<polygon fill="none" stroke="#000000" points="109.5,-162.5 109.5,-192.5 461.5,-192.5 461.5,-162.5 109.5,-162.5"/>
<text text-anchor="start" x="116.5" y="-173.9" font-family="Arial" font-size="14.00" fill="#000000">scheduled_time </text>
<text text-anchor="start" x="218.4158" y="-173.9" font-family="Arial" font-size="14.00" fill="#666666">[timestamp with time zone]</text>
<polygon fill="none" stroke="#000000" points="109.5,-132.5 109.5,-162.5 461.5,-162.5 461.5,-132.5 109.5,-132.5"/>
<text text-anchor="start" x="116.5" y="-143.9" font-family="Arial" font-size="14.00" fill="#000000">status </text>
<text text-anchor="start" x="157.737" y="-143.9" font-family="Arial" font-size="14.00" fill="#666666">[text]</text>
<polygon fill="none" stroke="#000000" points="109.5,-102.5 109.5,-132.5 461.5,-132.5 461.5,-102.5 109.5,-102.5"/>
<text text-anchor="start" x="116.5" y="-113.9" font-family="Arial" font-size="14.00" fill="#000000">tries </text>
<text text-anchor="start" x="146.831" y="-113.9" font-family="Arial" font-size="14.00" fill="#666666">[integer]</text>
<polygon fill="none" stroke="#000000" points="109.5,-72.5 109.5,-102.5 461.5,-102.5 461.5,-72.5 109.5,-72.5"/>
<text text-anchor="start" x="116.5" y="-83.9" font-family="Arial" font-size="14.00" fill="#000000">created_at </text>
<text text-anchor="start" x="186.528" y="-83.9" font-family="Arial" font-size="14.00" fill="#666666">[timestamp with time zone]</text>
<polygon fill="none" stroke="#000000" points="109.5,-42.5 109.5,-72.5 461.5,-72.5 461.5,-42.5 109.5,-42.5"/>
<text text-anchor="start" x="116.5" y="-53.9" font-family="Arial" font-size="14.00" fill="#000000">next_retry_at </text>
<text text-anchor="start" x="202.0792" y="-53.9" font-family="Arial" font-size="14.00" fill="#666666">[timestamp with time zone]</text>
</g>
<!-- hdb_catalog.hdb_cron_event_invocation_logs&#45;&gt;hdb_catalog.hdb_cron_events -->
<g id="edge1" class="edge">
<title>hdb_catalog.hdb_cron_event_invocation_logs:event_id&#45;&gt;hdb_catalog.hdb_cron_events:id</title>
<path fill="none" stroke="#000000" d="M533.6752,-546.7819C601.3285,-536.7214 575.2776,-423.4754 523.5,-367 461.0932,-298.931 171.9068,-399.069 109.5,-331 81.4174,-300.3694 67.9444,-237.5 109.5,-237.5"/>
<polygon fill="#000000" stroke="#000000" points="533.4752,-546.7959 523.1832,-543.0112 528.4876,-547.148 523.5,-547.5 523.5,-547.5 523.5,-547.5 528.4876,-547.148 523.8168,-551.9888 533.4752,-546.7959 533.4752,-546.7959"/>
<text text-anchor="start" x="530.188" y="-557.5" font-family="Arial" font-size="10.00" fill="#000000">FOREIGN KEY (event_id) REFERENCES hdb_catalog.hdb_cron_events(id) ON UPDATE CASCADE ON DELETE CASCADE</text>
</g>
</g>
</svg>
