<?xml version="1.0" encoding="UTF-8" standalone="no"?>
<!DOCTYPE svg PUBLIC "-//W3C//DTD SVG 1.1//EN"
 "http://www.w3.org/Graphics/SVG/1.1/DTD/svg11.dtd">
<!-- Generated by graphviz version 2.40.1 (20161225.0304)
 -->
<!-- Title: hdb_catalog.hdb_scheduled_events Pages: 1 -->
<svg width="1175pt" height="802pt"
 viewBox="0.00 0.00 1175.00 802.00" xmlns="http://www.w3.org/2000/svg" xmlns:xlink="http://www.w3.org/1999/xlink">
<g id="graph0" class="graph" transform="scale(1 1) rotate(0) translate(4 798)">
<title>hdb_catalog.hdb_scheduled_events</title>
<polygon fill="#ffffff" stroke="transparent" points="-4,4 -4,-798 1171,-798 1171,4 -4,4"/>
<!-- hdb_catalog.hdb_scheduled_events -->
<g id="node1" class="node">
<title>hdb_catalog.hdb_scheduled_events</title>
<polygon fill="#efefef" stroke="transparent" points="662,-375.5 662,-410.5 1061,-410.5 1061,-375.5 662,-375.5"/>
<polygon fill="none" stroke="#000000" points="662,-375.5 662,-410.5 1061,-410.5 1061,-375.5 662,-375.5"/>
<text text-anchor="start" x="668.8074" y="-388.3" font-family="Arial Bold" font-size="18.00" fill="#000000">hdb_catalog.hdb_scheduled_events</text>
<text text-anchor="start" x="956.9388" y="-388.3" font-family="Arial" font-size="14.00" fill="#000000"> </text>
<text text-anchor="start" x="960.8294" y="-388.3" font-family="Arial" font-size="14.00" fill="#666666">[BASE TABLE]</text>
<polygon fill="none" stroke="#000000" points="662,-345.5 662,-375.5 1061,-375.5 1061,-345.5 662,-345.5"/>
<text text-anchor="start" x="669" y="-356.9" font-family="Arial" font-size="14.00" fill="#000000">id </text>
<text text-anchor="start" x="683.7798" y="-356.9" font-family="Arial" font-size="14.00" fill="#666666">[text]</text>
<polygon fill="none" stroke="#000000" points="662,-315.5 662,-345.5 1061,-345.5 1061,-315.5 662,-315.5"/>
<text text-anchor="start" x="669" y="-326.9" font-family="Arial" font-size="14.00" fill="#000000">webhook_conf </text>
<text text-anchor="start" x="763.1486" y="-326.9" font-family="Arial" font-size="14.00" fill="#666666">[json]</text>
<polygon fill="none" stroke="#000000" points="662,-285.5 662,-315.5 1061,-315.5 1061,-285.5 662,-285.5"/>
<text text-anchor="start" x="669" y="-296.9" font-family="Arial" font-size="14.00" fill="#000000">scheduled_time </text>
<text text-anchor="start" x="770.9158" y="-296.9" font-family="Arial" font-size="14.00" fill="#666666">[timestamp with time zone]</text>
<polygon fill="none" stroke="#000000" points="662,-255.5 662,-285.5 1061,-285.5 1061,-255.5 662,-255.5"/>
<text text-anchor="start" x="669" y="-266.9" font-family="Arial" font-size="14.00" fill="#000000">retry_conf </text>
<text text-anchor="start" x="735.1234" y="-266.9" font-family="Arial" font-size="14.00" fill="#666666">[json]</text>
<polygon fill="none" stroke="#000000" points="662,-225.5 662,-255.5 1061,-255.5 1061,-225.5 662,-225.5"/>
<text text-anchor="start" x="669" y="-236.9" font-family="Arial" font-size="14.00" fill="#000000">payload </text>
<text text-anchor="start" x="721.9102" y="-236.9" font-family="Arial" font-size="14.00" fill="#666666">[json]</text>
<polygon fill="none" stroke="#000000" points="662,-195.5 662,-225.5 1061,-225.5 1061,-195.5 662,-195.5"/>
<text text-anchor="start" x="669" y="-206.9" font-family="Arial" font-size="14.00" fill="#000000">header_conf </text>
<text text-anchor="start" x="750.7026" y="-206.9" font-family="Arial" font-size="14.00" fill="#666666">[json]</text>
<polygon fill="none" stroke="#000000" points="662,-165.5 662,-195.5 1061,-195.5 1061,-165.5 662,-165.5"/>
<text text-anchor="start" x="669" y="-176.9" font-family="Arial" font-size="14.00" fill="#000000">status </text>
<text text-anchor="start" x="710.237" y="-176.9" font-family="Arial" font-size="14.00" fill="#666666">[text]</text>
<polygon fill="none" stroke="#000000" points="662,-135.5 662,-165.5 1061,-165.5 1061,-135.5 662,-135.5"/>
<text text-anchor="start" x="669" y="-146.9" font-family="Arial" font-size="14.00" fill="#000000">tries </text>
<text text-anchor="start" x="699.331" y="-146.9" font-family="Arial" font-size="14.00" fill="#666666">[integer]</text>
<polygon fill="none" stroke="#000000" points="662,-105.5 662,-135.5 1061,-135.5 1061,-105.5 662,-105.5"/>
<text text-anchor="start" x="669" y="-116.9" font-family="Arial" font-size="14.00" fill="#000000">created_at </text>
<text text-anchor="start" x="739.028" y="-116.9" font-family="Arial" font-size="14.00" fill="#666666">[timestamp with time zone]</text>
<polygon fill="none" stroke="#000000" points="662,-75.5 662,-105.5 1061,-105.5 1061,-75.5 662,-75.5"/>
<text text-anchor="start" x="669" y="-86.9" font-family="Arial" font-size="14.00" fill="#000000">next_retry_at </text>
<text text-anchor="start" x="754.5792" y="-86.9" font-family="Arial" font-size="14.00" fill="#666666">[timestamp with time zone]</text>
<polygon fill="none" stroke="#000000" points="662,-45.5 662,-75.5 1061,-75.5 1061,-45.5 662,-45.5"/>
<text text-anchor="start" x="669" y="-56.9" font-family="Arial" font-size="14.00" fill="#000000">comment </text>
<text text-anchor="start" x="730.4502" y="-56.9" font-family="Arial" font-size="14.00" fill="#666666">[text]</text>
<polygon fill="none" stroke="#000000" stroke-width="3" points="660,-44.5 660,-412.5 1062,-412.5 1062,-44.5 660,-44.5"/>
</g>
<!-- hdb_catalog.hdb_scheduled_event_invocation_logs -->
<g id="node2" class="node">
<title>hdb_catalog.hdb_scheduled_event_invocation_logs</title>
<polygon fill="#efefef" stroke="transparent" points="600,-715.5 600,-750.5 1124,-750.5 1124,-715.5 600,-715.5"/>
<polygon fill="none" stroke="#000000" points="600,-715.5 600,-750.5 1124,-750.5 1124,-715.5 600,-715.5"/>
<text text-anchor="start" x="606.7871" y="-728.3" font-family="Arial Bold" font-size="18.00" fill="#000000">hdb_catalog.hdb_scheduled_event_invocation_logs</text>
<text text-anchor="start" x="1019.9591" y="-728.3" font-family="Arial" font-size="14.00" fill="#000000"> </text>
<text text-anchor="start" x="1023.8497" y="-728.3" font-family="Arial" font-size="14.00" fill="#666666">[BASE TABLE]</text>
<polygon fill="none" stroke="#000000" points="600,-685.5 600,-715.5 1124,-715.5 1124,-685.5 600,-685.5"/>
<text text-anchor="start" x="607" y="-696.9" font-family="Arial" font-size="14.00" fill="#000000">id </text>
<text text-anchor="start" x="621.7798" y="-696.9" font-family="Arial" font-size="14.00" fill="#666666">[text]</text>
<polygon fill="none" stroke="#000000" points="600,-655.5 600,-685.5 1124,-685.5 1124,-655.5 600,-655.5"/>
<text text-anchor="start" x="607" y="-666.9" font-family="Arial" font-size="14.00" fill="#000000">event_id </text>
<text text-anchor="start" x="663.8008" y="-666.9" font-family="Arial" font-size="14.00" fill="#666666">[text]</text>
<polygon fill="none" stroke="#000000" points="600,-625.5 600,-655.5 1124,-655.5 1124,-625.5 600,-625.5"/>
<text text-anchor="start" x="607" y="-636.9" font-family="Arial" font-size="14.00" fill="#000000">status </text>
<text text-anchor="start" x="648.237" y="-636.9" font-family="Arial" font-size="14.00" fill="#666666">[integer]</text>
<polygon fill="none" stroke="#000000" points="600,-595.5 600,-625.5 1124,-625.5 1124,-595.5 600,-595.5"/>
<text text-anchor="start" x="607" y="-606.9" font-family="Arial" font-size="14.00" fill="#000000">request </text>
<text text-anchor="start" x="657.5722" y="-606.9" font-family="Arial" font-size="14.00" fill="#666666">[json]</text>
<polygon fill="none" stroke="#000000" points="600,-565.5 600,-595.5 1124,-595.5 1124,-565.5 600,-565.5"/>
<text text-anchor="start" x="607" y="-576.9" font-family="Arial" font-size="14.00" fill="#000000">response </text>
<text text-anchor="start" x="668.4642" y="-576.9" font-family="Arial" font-size="14.00" fill="#666666">[json]</text>
<polygon fill="none" stroke="#000000" points="600,-535.5 600,-565.5 1124,-565.5 1124,-535.5 600,-535.5"/>
<text text-anchor="start" x="607" y="-546.9" font-family="Arial" font-size="14.00" fill="#000000">created_at </text>
<text text-anchor="start" x="677.028" y="-546.9" font-family="Arial" font-size="14.00" fill="#666666">[timestamp with time zone]</text>
</g>
<!-- hdb_catalog.hdb_scheduled_event_invocation_logs&#45;&gt;hdb_catalog.hdb_scheduled_events -->
<g id="edge1" class="edge">
<title>hdb_catalog.hdb_scheduled_event_invocation_logs:event_id&#45;&gt;hdb_catalog.hdb_scheduled_events:id</title>
<path fill="none" stroke="#000000" d="M589.9925,-669.7925C523.4431,-659.8804 548.8389,-548.312 600,-493 669.774,-417.5649 991.226,-532.4351 1061,-457 1090.1226,-425.5146 1103.8889,-360.5 1061,-360.5"/>
<polygon fill="#000000" stroke="#000000" points="590.0249,-669.7947 599.6826,-674.9888 595.0124,-670.1473 600,-670.5 600,-670.5 600,-670.5 595.0124,-670.1473 600.3174,-666.0112 590.0249,-669.7947 590.0249,-669.7947"/>
<text text-anchor="start" x="6.625" y="-680.5" font-family="Arial" font-size="10.00" fill="#000000">FOREIGN KEY (event_id) REFERENCES hdb_catalog.hdb_scheduled_events(id) ON UPDATE CASCADE ON DELETE CASCADE</text>
</g>
</g>
</svg>
