<?xml version="1.0" encoding="UTF-8" standalone="no"?>
<!DOCTYPE svg PUBLIC "-//W3C//DTD SVG 1.1//EN"
 "http://www.w3.org/Graphics/SVG/1.1/DTD/svg11.dtd">
<!-- Generated by graphviz version 2.40.1 (20161225.0304)
 -->
<!-- Title: hdb_catalog.hdb_cron_events Pages: 1 -->
<svg width="1103pt" height="682pt"
 viewBox="0.00 0.00 1102.50 682.00" xmlns="http://www.w3.org/2000/svg" xmlns:xlink="http://www.w3.org/1999/xlink">
<g id="graph0" class="graph" transform="scale(1 1) rotate(0) translate(4 678)">
<title>hdb_catalog.hdb_cron_events</title>
<polygon fill="#ffffff" stroke="transparent" points="-4,4 -4,-678 1098.5,-678 1098.5,4 -4,4"/>
<!-- hdb_catalog.hdb_cron_events -->
<g id="node1" class="node">
<title>hdb_catalog.hdb_cron_events</title>
<polygon fill="#efefef" stroke="transparent" points="106.5,-255.5 106.5,-290.5 458.5,-290.5 458.5,-255.5 106.5,-255.5"/>
<polygon fill="none" stroke="#000000" points="106.5,-255.5 106.5,-290.5 458.5,-290.5 458.5,-255.5 106.5,-255.5"/>
<text text-anchor="start" x="113.3208" y="-268.3" font-family="Arial Bold" font-size="18.00" fill="#000000">hdb_catalog.hdb_cron_events</text>
<text text-anchor="start" x="354.4254" y="-268.3" font-family="Arial" font-size="14.00" fill="#000000"> </text>
<text text-anchor="start" x="358.316" y="-268.3" font-family="Arial" font-size="14.00" fill="#666666">[BASE TABLE]</text>
<polygon fill="none" stroke="#000000" points="106.5,-225.5 106.5,-255.5 458.5,-255.5 458.5,-225.5 106.5,-225.5"/>
<text text-anchor="start" x="113.5" y="-236.9" font-family="Arial" font-size="14.00" fill="#000000">id </text>
<text text-anchor="start" x="128.2798" y="-236.9" font-family="Arial" font-size="14.00" fill="#666666">[text]</text>
<polygon fill="none" stroke="#000000" points="106.5,-195.5 106.5,-225.5 458.5,-225.5 458.5,-195.5 106.5,-195.5"/>
<text text-anchor="start" x="113.5" y="-206.9" font-family="Arial" font-size="14.00" fill="#000000">trigger_name </text>
<text text-anchor="start" x="199.8478" y="-206.9" font-family="Arial" font-size="14.00" fill="#666666">[text]</text>
<polygon fill="none" stroke="#000000" points="106.5,-165.5 106.5,-195.5 458.5,-195.5 458.5,-165.5 106.5,-165.5"/>
<text text-anchor="start" x="113.5" y="-176.9" font-family="Arial" font-size="14.00" fill="#000000">scheduled_time </text>
<text text-anchor="start" x="215.4158" y="-176.9" font-family="Arial" font-size="14.00" fill="#666666">[timestamp with time zone]</text>
<polygon fill="none" stroke="#000000" points="106.5,-135.5 106.5,-165.5 458.5,-165.5 458.5,-135.5 106.5,-135.5"/>
<text text-anchor="start" x="113.5" y="-146.9" font-family="Arial" font-size="14.00" fill="#000000">status </text>
<text text-anchor="start" x="154.737" y="-146.9" font-family="Arial" font-size="14.00" fill="#666666">[text]</text>
<polygon fill="none" stroke="#000000" points="106.5,-105.5 106.5,-135.5 458.5,-135.5 458.5,-105.5 106.5,-105.5"/>
<text text-anchor="start" x="113.5" y="-116.9" font-family="Arial" font-size="14.00" fill="#000000">tries </text>
<text text-anchor="start" x="143.831" y="-116.9" font-family="Arial" font-size="14.00" fill="#666666">[integer]</text>
<polygon fill="none" stroke="#000000" points="106.5,-75.5 106.5,-105.5 458.5,-105.5 458.5,-75.5 106.5,-75.5"/>
<text text-anchor="start" x="113.5" y="-86.9" font-family="Arial" font-size="14.00" fill="#000000">created_at </text>
<text text-anchor="start" x="183.528" y="-86.9" font-family="Arial" font-size="14.00" fill="#666666">[timestamp with time zone]</text>
<polygon fill="none" stroke="#000000" points="106.5,-45.5 106.5,-75.5 458.5,-75.5 458.5,-45.5 106.5,-45.5"/>
<text text-anchor="start" x="113.5" y="-56.9" font-family="Arial" font-size="14.00" fill="#000000">next_retry_at </text>
<text text-anchor="start" x="199.0792" y="-56.9" font-family="Arial" font-size="14.00" fill="#666666">[timestamp with time zone]</text>
<polygon fill="none" stroke="#000000" stroke-width="3" points="105,-44.5 105,-292.5 460,-292.5 460,-44.5 105,-44.5"/>
</g>
<!-- hdb_catalog.hdb_cron_event_invocation_logs -->
<g id="node2" class="node">
<title>hdb_catalog.hdb_cron_event_invocation_logs</title>
<polygon fill="#efefef" stroke="transparent" points="43.5,-595.5 43.5,-630.5 520.5,-630.5 520.5,-595.5 43.5,-595.5"/>
<polygon fill="none" stroke="#000000" points="43.5,-595.5 43.5,-630.5 520.5,-630.5 520.5,-595.5 43.5,-595.5"/>
<text text-anchor="start" x="50.3005" y="-608.3" font-family="Arial Bold" font-size="18.00" fill="#000000">hdb_catalog.hdb_cron_event_invocation_logs</text>
<text text-anchor="start" x="416.4457" y="-608.3" font-family="Arial" font-size="14.00" fill="#000000"> </text>
<text text-anchor="start" x="420.3363" y="-608.3" font-family="Arial" font-size="14.00" fill="#666666">[BASE TABLE]</text>
<polygon fill="none" stroke="#000000" points="43.5,-565.5 43.5,-595.5 520.5,-595.5 520.5,-565.5 43.5,-565.5"/>
<text text-anchor="start" x="50.5" y="-576.9" font-family="Arial" font-size="14.00" fill="#000000">id </text>
<text text-anchor="start" x="65.2798" y="-576.9" font-family="Arial" font-size="14.00" fill="#666666">[text]</text>
<polygon fill="none" stroke="#000000" points="43.5,-535.5 43.5,-565.5 520.5,-565.5 520.5,-535.5 43.5,-535.5"/>
<text text-anchor="start" x="50.5" y="-546.9" font-family="Arial" font-size="14.00" fill="#000000">event_id </text>
<text text-anchor="start" x="107.3008" y="-546.9" font-family="Arial" font-size="14.00" fill="#666666">[text]</text>
<polygon fill="none" stroke="#000000" points="43.5,-505.5 43.5,-535.5 520.5,-535.5 520.5,-505.5 43.5,-505.5"/>
<text text-anchor="start" x="50.5" y="-516.9" font-family="Arial" font-size="14.00" fill="#000000">status </text>
<text text-anchor="start" x="91.737" y="-516.9" font-family="Arial" font-size="14.00" fill="#666666">[integer]</text>
<polygon fill="none" stroke="#000000" points="43.5,-475.5 43.5,-505.5 520.5,-505.5 520.5,-475.5 43.5,-475.5"/>
<text text-anchor="start" x="50.5" y="-486.9" font-family="Arial" font-size="14.00" fill="#000000">request </text>
<text text-anchor="start" x="101.0722" y="-486.9" font-family="Arial" font-size="14.00" fill="#666666">[json]</text>
<polygon fill="none" stroke="#000000" points="43.5,-445.5 43.5,-475.5 520.5,-475.5 520.5,-445.5 43.5,-445.5"/>
<text text-anchor="start" x="50.5" y="-456.9" font-family="Arial" font-size="14.00" fill="#000000">response </text>
<text text-anchor="start" x="111.9642" y="-456.9" font-family="Arial" font-size="14.00" fill="#666666">[json]</text>
<polygon fill="none" stroke="#000000" points="43.5,-415.5 43.5,-445.5 520.5,-445.5 520.5,-415.5 43.5,-415.5"/>
<text text-anchor="start" x="50.5" y="-426.9" font-family="Arial" font-size="14.00" fill="#000000">created_at </text>
<text text-anchor="start" x="120.528" y="-426.9" font-family="Arial" font-size="14.00" fill="#666666">[timestamp with time zone]</text>
</g>
<!-- hdb_catalog.hdb_cron_event_invocation_logs&#45;&gt;hdb_catalog.hdb_cron_events -->
<g id="edge1" class="edge">
<title>hdb_catalog.hdb_cron_event_invocation_logs:event_id&#45;&gt;hdb_catalog.hdb_cron_events:id</title>
<path fill="none" stroke="#000000" d="M530.506,-549.7938C597.035,-539.9006 571.417,-428.5368 520.5,-373 458.0932,-304.931 168.9068,-405.069 106.5,-337 77.5163,-305.3866 63.6111,-240.5 106.5,-240.5"/>
<polygon fill="#000000" stroke="#000000" points="530.4752,-549.7959 520.1832,-546.0112 525.4876,-550.148 520.5,-550.5 520.5,-550.5 520.5,-550.5 525.4876,-550.148 520.8168,-554.9888 530.4752,-549.7959 530.4752,-549.7959"/>
<text text-anchor="start" x="527.188" y="-560.5" font-family="Arial" font-size="10.00" fill="#000000">FOREIGN KEY (event_id) REFERENCES hdb_catalog.hdb_cron_events(id) ON UPDATE CASCADE ON DELETE CASCADE</text>
</g>
</g>
</svg>
