<?xml version="1.0" encoding="UTF-8" standalone="no"?>
<!DOCTYPE svg PUBLIC "-//W3C//DTD SVG 1.1//EN"
 "http://www.w3.org/Graphics/SVG/1.1/DTD/svg11.dtd">
<!-- Generated by graphviz version 2.40.1 (20161225.0304)
 -->
<!-- Title: hdb_catalog.hdb_version Pages: 1 -->
<svg width="412pt" height="285pt"
 viewBox="0.00 0.00 412.00 285.00" xmlns="http://www.w3.org/2000/svg" xmlns:xlink="http://www.w3.org/1999/xlink">
<g id="graph0" class="graph" transform="scale(1 1) rotate(0) translate(4 281)">
<title>hdb_catalog.hdb_version</title>
<polygon fill="#ffffff" stroke="transparent" points="-4,4 -4,-281 408,-281 408,4 -4,4"/>
<!-- hdb_catalog.hdb_version -->
<g id="node1" class="node">
<title>hdb_catalog.hdb_version</title>
<polygon fill="#efefef" stroke="transparent" points="46,-195.5 46,-230.5 358,-230.5 358,-195.5 46,-195.5"/>
<polygon fill="none" stroke="#000000" points="46,-195.5 46,-230.5 358,-230.5 358,-195.5 46,-195.5"/>
<text text-anchor="start" x="52.8341" y="-208.3" font-family="Arial Bold" font-size="18.00" fill="#000000">hdb_catalog.hdb_version</text>
<text text-anchor="start" x="253.9121" y="-208.3" font-family="Arial" font-size="14.00" fill="#000000"> </text>
<text text-anchor="start" x="257.8027" y="-208.3" font-family="Arial" font-size="14.00" fill="#666666">[BASE TABLE]</text>
<polygon fill="none" stroke="#000000" points="46,-165.5 46,-195.5 358,-195.5 358,-165.5 46,-165.5"/>
<text text-anchor="start" x="53" y="-176.9" font-family="Arial" font-size="14.00" fill="#000000">hasura_uuid </text>
<text text-anchor="start" x="133.9186" y="-176.9" font-family="Arial" font-size="14.00" fill="#666666">[uuid]</text>
<polygon fill="none" stroke="#000000" points="46,-135.5 46,-165.5 358,-165.5 358,-135.5 46,-135.5"/>
<text text-anchor="start" x="53" y="-146.9" font-family="Arial" font-size="14.00" fill="#000000">version </text>
<text text-anchor="start" x="102.0056" y="-146.9" font-family="Arial" font-size="14.00" fill="#666666">[text]</text>
<polygon fill="none" stroke="#000000" points="46,-105.5 46,-135.5 358,-135.5 358,-105.5 46,-105.5"/>
<text text-anchor="start" x="53" y="-116.9" font-family="Arial" font-size="14.00" fill="#000000">upgraded_on </text>
<text text-anchor="start" x="139.3772" y="-116.9" font-family="Arial" font-size="14.00" fill="#666666">[timestamp with time zone]</text>
<polygon fill="none" stroke="#000000" points="46,-75.5 46,-105.5 358,-105.5 358,-75.5 46,-75.5"/>
<text text-anchor="start" x="53" y="-86.9" font-family="Arial" font-size="14.00" fill="#000000">cli_state </text>
<text text-anchor="start" x="108.2328" y="-86.9" font-family="Arial" font-size="14.00" fill="#666666">[jsonb]</text>
<polygon fill="none" stroke="#000000" points="46,-45.5 46,-75.5 358,-75.5 358,-45.5 46,-45.5"/>
<text text-anchor="start" x="53" y="-56.9" font-family="Arial" font-size="14.00" fill="#000000">console_state </text>
<text text-anchor="start" x="143.2566" y="-56.9" font-family="Arial" font-size="14.00" fill="#666666">[jsonb]</text>
<polygon fill="none" stroke="#000000" stroke-width="3" points="44.5,-44.5 44.5,-232.5 359.5,-232.5 359.5,-44.5 44.5,-44.5"/>
</g>
</g>
</svg>
