<?xml version="1.0" encoding="UTF-8" standalone="no"?>
<!DOCTYPE svg PUBLIC "-//W3C//DTD SVG 1.1//EN"
 "http://www.w3.org/Graphics/SVG/1.1/DTD/svg11.dtd">
<!-- Generated by graphviz version 2.40.1 (20161225.0304)
 -->
<!-- Title: public.authors Pages: 1 -->
<svg width="733pt" height="749pt"
 viewBox="0.00 0.00 733.00 749.00" xmlns="http://www.w3.org/2000/svg" xmlns:xlink="http://www.w3.org/1999/xlink">
<g id="graph0" class="graph" transform="scale(1 1) rotate(0) translate(4 745)">
<title>public.authors</title>
<polygon fill="#ffffff" stroke="transparent" points="-4,4 -4,-745 729,-745 729,4 -4,4"/>
<!-- public.authors -->
<g id="node1" class="node">
<title>public.authors</title>
<polygon fill="#efefef" stroke="transparent" points="253,-412.5 253,-447.5 476,-447.5 476,-412.5 253,-412.5"/>
<polygon fill="none" stroke="#000000" points="253,-412.5 253,-447.5 476,-447.5 476,-412.5 253,-412.5"/>
<text text-anchor="start" x="259.8589" y="-425.3" font-family="Arial Bold" font-size="18.00" fill="#000000">public.authors</text>
<text text-anchor="start" x="371.8873" y="-425.3" font-family="Arial" font-size="14.00" fill="#000000"> </text>
<text text-anchor="start" x="375.7779" y="-425.3" font-family="Arial" font-size="14.00" fill="#666666">[BASE TABLE]</text>
<polygon fill="none" stroke="#000000" points="253,-382.5 253,-412.5 476,-412.5 476,-382.5 253,-382.5"/>
<text text-anchor="start" x="260" y="-393.9" font-family="Arial" font-size="14.00" fill="#000000">id </text>
<text text-anchor="start" x="274.7798" y="-393.9" font-family="Arial" font-size="14.00" fill="#666666">[bigint]</text>
<polygon fill="none" stroke="#000000" points="253,-352.5 253,-382.5 476,-382.5 476,-352.5 253,-352.5"/>
<text text-anchor="start" x="260" y="-363.9" font-family="Arial" font-size="14.00" fill="#000000">name </text>
<text text-anchor="start" x="298.899" y="-363.9" font-family="Arial" font-size="14.00" fill="#666666">[text]</text>
<polygon fill="none" stroke="#000000" points="253,-322.5 253,-352.5 476,-352.5 476,-322.5 253,-322.5"/>
<text text-anchor="start" x="260" y="-333.9" font-family="Arial" font-size="14.00" fill="#000000">website </text>
<text text-anchor="start" x="311.3422" y="-333.9" font-family="Arial" font-size="14.00" fill="#666666">[text]</text>
<polygon fill="none" stroke="#000000" points="253,-292.5 253,-322.5 476,-322.5 476,-292.5 253,-292.5"/>
<text text-anchor="start" x="260" y="-303.9" font-family="Arial" font-size="14.00" fill="#000000">agent_id </text>
<text text-anchor="start" x="317.5834" y="-303.9" font-family="Arial" font-size="14.00" fill="#666666">[bigint]</text>
<polygon fill="none" stroke="#000000" stroke-width="3" points="251,-291.5 251,-449.5 477,-449.5 477,-291.5 251,-291.5"/>
</g>
<!-- public.agents -->
<g id="node3" class="node">
<title>public.agents</title>
<polygon fill="#efefef" stroke="transparent" points="256,-132.5 256,-167.5 473,-167.5 473,-132.5 256,-132.5"/>
<polygon fill="none" stroke="#000000" points="256,-132.5 256,-167.5 473,-167.5 473,-132.5 256,-132.5"/>
<text text-anchor="start" x="262.855" y="-145.3" font-family="Arial Bold" font-size="18.00" fill="#000000">public.agents</text>
<text text-anchor="start" x="368.8912" y="-145.3" font-family="Arial" font-size="14.00" fill="#000000"> </text>
<text text-anchor="start" x="372.7818" y="-145.3" font-family="Arial" font-size="14.00" fill="#666666">[BASE TABLE]</text>
<polygon fill="none" stroke="#000000" points="256,-102.5 256,-132.5 473,-132.5 473,-102.5 256,-102.5"/>
<text text-anchor="start" x="263" y="-113.9" font-family="Arial" font-size="14.00" fill="#000000">id </text>
<text text-anchor="start" x="277.7798" y="-113.9" font-family="Arial" font-size="14.00" fill="#666666">[bigint]</text>
<polygon fill="none" stroke="#000000" points="256,-72.5 256,-102.5 473,-102.5 473,-72.5 256,-72.5"/>
<text text-anchor="start" x="263" y="-83.9" font-family="Arial" font-size="14.00" fill="#000000">name </text>
<text text-anchor="start" x="301.899" y="-83.9" font-family="Arial" font-size="14.00" fill="#666666">[text]</text>
<polygon fill="none" stroke="#000000" points="256,-42.5 256,-72.5 473,-72.5 473,-42.5 256,-42.5"/>
<text text-anchor="start" x="263" y="-53.9" font-family="Arial" font-size="14.00" fill="#000000">email </text>
<text text-anchor="start" x="300.3296" y="-53.9" font-family="Arial" font-size="14.00" fill="#666666">[text]</text>
</g>
<!-- public.authors&#45;&gt;public.agents -->
<g id="edge2" class="edge">
<title>public.authors:agent_id&#45;&gt;public.agents:id</title>
<path fill="none" stroke="#000000" d="M364.1295,-282.5016C355.2823,-235.6964 281.4509,-261.8085 256,-211 237.3885,-173.8452 214.4444,-117.5 256,-117.5"/>
<polygon fill="#000000" stroke="#000000" points="364.1326,-282.5377 360.517,-292.8903 364.5663,-287.5188 365,-292.5 365,-292.5 365,-292.5 364.5663,-287.5188 369.483,-292.1097 364.1326,-282.5377 364.1326,-282.5377"/>
<text text-anchor="start" x="371.656" y="-302.5" font-family="Arial" font-size="10.00" fill="#000000">FOREIGN KEY (agent_id) REFERENCES agents(id) ON DELETE RESTRICT</text>
</g>
<!-- public.book_authors -->
<g id="node2" class="node">
<title>public.book_authors</title>
<polygon fill="#efefef" stroke="transparent" points="229,-662.5 229,-697.5 501,-697.5 501,-662.5 229,-662.5"/>
<polygon fill="none" stroke="#000000" points="229,-662.5 229,-697.5 501,-697.5 501,-662.5 229,-662.5"/>
<text text-anchor="start" x="235.8465" y="-675.3" font-family="Arial Bold" font-size="18.00" fill="#000000">public.book_authors</text>
<text text-anchor="start" x="396.8997" y="-675.3" font-family="Arial" font-size="14.00" fill="#000000"> </text>
<text text-anchor="start" x="400.7903" y="-675.3" font-family="Arial" font-size="14.00" fill="#666666">[BASE TABLE]</text>
<polygon fill="none" stroke="#000000" points="229,-632.5 229,-662.5 501,-662.5 501,-632.5 229,-632.5"/>
<text text-anchor="start" x="236" y="-643.9" font-family="Arial" font-size="14.00" fill="#000000">id </text>
<text text-anchor="start" x="250.7798" y="-643.9" font-family="Arial" font-size="14.00" fill="#666666">[bigint]</text>
<polygon fill="none" stroke="#000000" points="229,-602.5 229,-632.5 501,-632.5 501,-602.5 229,-602.5"/>
<text text-anchor="start" x="236" y="-613.9" font-family="Arial" font-size="14.00" fill="#000000">book_id </text>
<text text-anchor="start" x="288.9102" y="-613.9" font-family="Arial" font-size="14.00" fill="#666666">[bigint]</text>
<polygon fill="none" stroke="#000000" points="229,-572.5 229,-602.5 501,-602.5 501,-572.5 229,-572.5"/>
<text text-anchor="start" x="236" y="-583.9" font-family="Arial" font-size="14.00" fill="#000000">author_id </text>
<text text-anchor="start" x="298.244" y="-583.9" font-family="Arial" font-size="14.00" fill="#666666">[bigint]</text>
</g>
<!-- public.book_authors&#45;&gt;public.authors -->
<g id="edge1" class="edge">
<title>public.book_authors:author_id&#45;&gt;public.authors:id</title>
<path fill="none" stroke="#000000" d="M365.9414,-562.2504C375.1865,-516.1759 449.9609,-544.3077 476,-494 495.7148,-455.9108 518.8889,-397.5 476,-397.5"/>
<polygon fill="#000000" stroke="#000000" points="365.9148,-562.5419 360.5189,-572.0884 365.4574,-567.521 365,-572.5 365,-572.5 365,-572.5 365.4574,-567.521 369.4811,-572.9116 365.9148,-562.5419 365.9148,-562.5419"/>
<text text-anchor="start" x="7.1565" y="-582.5" font-family="Arial" font-size="10.00" fill="#000000">FOREIGN KEY (author_id) REFERENCES authors(id) ON DELETE CASCADE</text>
</g>
</g>
</svg>
