<?xml version="1.0" encoding="UTF-8" standalone="no"?>
<!DOCTYPE svg PUBLIC "-//W3C//DTD SVG 1.1//EN"
 "http://www.w3.org/Graphics/SVG/1.1/DTD/svg11.dtd">
<!-- Generated by graphviz version 2.40.1 (20161225.0304)
 -->
<!-- Title: public.book_authors Pages: 1 -->
<svg width="997pt" height="502pt"
 viewBox="0.00 0.00 997.00 502.00" xmlns="http://www.w3.org/2000/svg" xmlns:xlink="http://www.w3.org/1999/xlink">
<g id="graph0" class="graph" transform="scale(1 1) rotate(0) translate(4 498)">
<title>public.book_authors</title>
<polygon fill="#ffffff" stroke="transparent" points="-4,4 -4,-498 993,-498 993,4 -4,4"/>
<!-- public.book_authors -->
<g id="node1" class="node">
<title>public.book_authors</title>
<polygon fill="#efefef" stroke="transparent" points="352,-412.5 352,-447.5 624,-447.5 624,-412.5 352,-412.5"/>
<polygon fill="none" stroke="#000000" points="352,-412.5 352,-447.5 624,-447.5 624,-412.5 352,-412.5"/>
<text text-anchor="start" x="358.8465" y="-425.3" font-family="Arial Bold" font-size="18.00" fill="#000000">public.book_authors</text>
<text text-anchor="start" x="519.8997" y="-425.3" font-family="Arial" font-size="14.00" fill="#000000"> </text>
<text text-anchor="start" x="523.7903" y="-425.3" font-family="Arial" font-size="14.00" fill="#666666">[BASE TABLE]</text>
<polygon fill="none" stroke="#000000" points="352,-382.5 352,-412.5 624,-412.5 624,-382.5 352,-382.5"/>
<text text-anchor="start" x="359" y="-393.9" font-family="Arial" font-size="14.00" fill="#000000">id </text>
<text text-anchor="start" x="373.7798" y="-393.9" font-family="Arial" font-size="14.00" fill="#666666">[bigint]</text>
<polygon fill="none" stroke="#000000" points="352,-352.5 352,-382.5 624,-382.5 624,-352.5 352,-352.5"/>
<text text-anchor="start" x="359" y="-363.9" font-family="Arial" font-size="14.00" fill="#000000">book_id </text>
<text text-anchor="start" x="411.9102" y="-363.9" font-family="Arial" font-size="14.00" fill="#666666">[bigint]</text>
<polygon fill="none" stroke="#000000" points="352,-322.5 352,-352.5 624,-352.5 624,-322.5 352,-322.5"/>
<text text-anchor="start" x="359" y="-333.9" font-family="Arial" font-size="14.00" fill="#000000">author_id </text>
<text text-anchor="start" x="421.244" y="-333.9" font-family="Arial" font-size="14.00" fill="#666666">[bigint]</text>
<polygon fill="none" stroke="#000000" stroke-width="3" points="350.5,-321.5 350.5,-449.5 625.5,-449.5 625.5,-321.5 350.5,-321.5"/>
</g>
<!-- public.books -->
<g id="node2" class="node">
<title>public.books</title>
<polygon fill="#efefef" stroke="transparent" points="222,-162.5 222,-197.5 433,-197.5 433,-162.5 222,-162.5"/>
<polygon fill="none" stroke="#000000" points="222,-162.5 222,-197.5 433,-197.5 433,-162.5 222,-162.5"/>
<text text-anchor="start" x="228.8592" y="-175.3" font-family="Arial Bold" font-size="18.00" fill="#000000">public.books</text>
<text text-anchor="start" x="328.887" y="-175.3" font-family="Arial" font-size="14.00" fill="#000000"> </text>
<text text-anchor="start" x="332.7776" y="-175.3" font-family="Arial" font-size="14.00" fill="#666666">[BASE TABLE]</text>
<polygon fill="none" stroke="#000000" points="222,-132.5 222,-162.5 433,-162.5 433,-132.5 222,-132.5"/>
<text text-anchor="start" x="229" y="-143.9" font-family="Arial" font-size="14.00" fill="#000000">id </text>
<text text-anchor="start" x="243.7798" y="-143.9" font-family="Arial" font-size="14.00" fill="#666666">[bigint]</text>
<polygon fill="none" stroke="#000000" points="222,-102.5 222,-132.5 433,-132.5 433,-102.5 222,-102.5"/>
<text text-anchor="start" x="229" y="-113.9" font-family="Arial" font-size="14.00" fill="#000000">title </text>
<text text-anchor="start" x="254.6676" y="-113.9" font-family="Arial" font-size="14.00" fill="#666666">[text]</text>
<polygon fill="none" stroke="#000000" points="222,-72.5 222,-102.5 433,-102.5 433,-72.5 222,-72.5"/>
<text text-anchor="start" x="229" y="-83.9" font-family="Arial" font-size="14.00" fill="#000000">description </text>
<text text-anchor="start" x="300.568" y="-83.9" font-family="Arial" font-size="14.00" fill="#666666">[text]</text>
<polygon fill="none" stroke="#000000" points="222,-42.5 222,-72.5 433,-72.5 433,-42.5 222,-42.5"/>
<text text-anchor="start" x="229" y="-53.9" font-family="Arial" font-size="14.00" fill="#000000">cover </text>
<text text-anchor="start" x="267.1164" y="-53.9" font-family="Arial" font-size="14.00" fill="#666666">[text]</text>
</g>
<!-- public.book_authors&#45;&gt;public.books -->
<g id="edge1" class="edge">
<title>public.book_authors:book_id&#45;&gt;public.books:id</title>
<path fill="none" stroke="#000000" d="M341.8395,-365.95C315.3873,-356.6311 332.2228,-307.4325 352,-277 373.4671,-243.9672 411.5329,-274.0328 433,-241 455.6442,-206.156 474.5556,-147.5 433,-147.5"/>
<polygon fill="#000000" stroke="#000000" points="342.1144,-365.9919 351.3213,-371.9485 347.0572,-366.7459 352,-367.5 352,-367.5 352,-367.5 347.0572,-366.7459 352.6787,-363.0515 342.1144,-365.9919 342.1144,-365.9919"/>
<text text-anchor="start" x="6.8235" y="-377.5" font-family="Arial" font-size="10.00" fill="#000000">FOREIGN KEY (book_id) REFERENCES books(id) ON DELETE CASCADE</text>
</g>
<!-- public.authors -->
<g id="node3" class="node">
<title>public.authors</title>
<polygon fill="#efefef" stroke="transparent" points="537,-162.5 537,-197.5 760,-197.5 760,-162.5 537,-162.5"/>
<polygon fill="none" stroke="#000000" points="537,-162.5 537,-197.5 760,-197.5 760,-162.5 537,-162.5"/>
<text text-anchor="start" x="543.8589" y="-175.3" font-family="Arial Bold" font-size="18.00" fill="#000000">public.authors</text>
<text text-anchor="start" x="655.8873" y="-175.3" font-family="Arial" font-size="14.00" fill="#000000"> </text>
<text text-anchor="start" x="659.7779" y="-175.3" font-family="Arial" font-size="14.00" fill="#666666">[BASE TABLE]</text>
<polygon fill="none" stroke="#000000" points="537,-132.5 537,-162.5 760,-162.5 760,-132.5 537,-132.5"/>
<text text-anchor="start" x="544" y="-143.9" font-family="Arial" font-size="14.00" fill="#000000">id </text>
<text text-anchor="start" x="558.7798" y="-143.9" font-family="Arial" font-size="14.00" fill="#666666">[bigint]</text>
<polygon fill="none" stroke="#000000" points="537,-102.5 537,-132.5 760,-132.5 760,-102.5 537,-102.5"/>
<text text-anchor="start" x="544" y="-113.9" font-family="Arial" font-size="14.00" fill="#000000">name </text>
<text text-anchor="start" x="582.899" y="-113.9" font-family="Arial" font-size="14.00" fill="#666666">[text]</text>
<polygon fill="none" stroke="#000000" points="537,-72.5 537,-102.5 760,-102.5 760,-72.5 537,-72.5"/>
<text text-anchor="start" x="544" y="-83.9" font-family="Arial" font-size="14.00" fill="#000000">website </text>
<text text-anchor="start" x="595.3422" y="-83.9" font-family="Arial" font-size="14.00" fill="#666666">[text]</text>
<polygon fill="none" stroke="#000000" points="537,-42.5 537,-72.5 760,-72.5 760,-42.5 537,-42.5"/>
<text text-anchor="start" x="544" y="-53.9" font-family="Arial" font-size="14.00" fill="#000000">agent_id </text>
<text text-anchor="start" x="601.5834" y="-53.9" font-family="Arial" font-size="14.00" fill="#666666">[bigint]</text>
</g>
<!-- public.book_authors&#45;&gt;public.authors -->
<g id="edge2" class="edge">
<title>public.book_authors:author_id&#45;&gt;public.authors:id</title>
<path fill="none" stroke="#000000" d="M633.8965,-334.9119C647.0825,-325.9651 636.6079,-295.8617 624,-277 600.7452,-242.2103 560.2548,-275.7897 537,-241 513.9068,-206.452 495.4444,-147.5 537,-147.5"/>
<polygon fill="#000000" stroke="#000000" points="633.6746,-334.9698 622.8614,-333.1464 628.8373,-336.2349 624,-337.5 624,-337.5 624,-337.5 628.8373,-336.2349 625.1386,-341.8536 633.6746,-334.9698 633.6746,-334.9698"/>
<text text-anchor="start" x="631.1565" y="-347.5" font-family="Arial" font-size="10.00" fill="#000000">FOREIGN KEY (author_id) REFERENCES authors(id) ON DELETE CASCADE</text>
</g>
</g>
</svg>
