<?xml version="1.0" encoding="UTF-8" standalone="no"?>
<!DOCTYPE svg PUBLIC "-//W3C//DTD SVG 1.1//EN"
 "http://www.w3.org/Graphics/SVG/1.1/DTD/svg11.dtd">
<!-- Generated by graphviz version 2.40.1 (20161225.0304)
 -->
<!-- Title: public.books Pages: 1 -->
<svg width="675pt" height="502pt"
 viewBox="0.00 0.00 675.00 502.00" xmlns="http://www.w3.org/2000/svg" xmlns:xlink="http://www.w3.org/1999/xlink">
<g id="graph0" class="graph" transform="scale(1 1) rotate(0) translate(4 498)">
<title>public.books</title>
<polygon fill="#ffffff" stroke="transparent" points="-4,4 -4,-498 671,-498 671,4 -4,4"/>
<!-- public.books -->
<g id="node1" class="node">
<title>public.books</title>
<polygon fill="#efefef" stroke="transparent" points="382,-165.5 382,-200.5 593,-200.5 593,-165.5 382,-165.5"/>
<polygon fill="none" stroke="#000000" points="382,-165.5 382,-200.5 593,-200.5 593,-165.5 382,-165.5"/>
<text text-anchor="start" x="388.8592" y="-178.3" font-family="Arial Bold" font-size="18.00" fill="#000000">public.books</text>
<text text-anchor="start" x="488.887" y="-178.3" font-family="Arial" font-size="14.00" fill="#000000"> </text>
<text text-anchor="start" x="492.7776" y="-178.3" font-family="Arial" font-size="14.00" fill="#666666">[BASE TABLE]</text>
<polygon fill="none" stroke="#000000" points="382,-135.5 382,-165.5 593,-165.5 593,-135.5 382,-135.5"/>
<text text-anchor="start" x="389" y="-146.9" font-family="Arial" font-size="14.00" fill="#000000">id </text>
<text text-anchor="start" x="403.7798" y="-146.9" font-family="Arial" font-size="14.00" fill="#666666">[bigint]</text>
<polygon fill="none" stroke="#000000" points="382,-105.5 382,-135.5 593,-135.5 593,-105.5 382,-105.5"/>
<text text-anchor="start" x="389" y="-116.9" font-family="Arial" font-size="14.00" fill="#000000">title </text>
<text text-anchor="start" x="414.6676" y="-116.9" font-family="Arial" font-size="14.00" fill="#666666">[text]</text>
<polygon fill="none" stroke="#000000" points="382,-75.5 382,-105.5 593,-105.5 593,-75.5 382,-75.5"/>
<text text-anchor="start" x="389" y="-86.9" font-family="Arial" font-size="14.00" fill="#000000">description </text>
<text text-anchor="start" x="460.568" y="-86.9" font-family="Arial" font-size="14.00" fill="#666666">[text]</text>
<polygon fill="none" stroke="#000000" points="382,-45.5 382,-75.5 593,-75.5 593,-45.5 382,-45.5"/>
<text text-anchor="start" x="389" y="-56.9" font-family="Arial" font-size="14.00" fill="#000000">cover </text>
<text text-anchor="start" x="427.1164" y="-56.9" font-family="Arial" font-size="14.00" fill="#666666">[text]</text>
<polygon fill="none" stroke="#000000" stroke-width="3" points="380,-44.5 380,-202.5 594,-202.5 594,-44.5 380,-44.5"/>
</g>
<!-- public.book_authors -->
<g id="node2" class="node">
<title>public.book_authors</title>
<polygon fill="#efefef" stroke="transparent" points="352,-415.5 352,-450.5 624,-450.5 624,-415.5 352,-415.5"/>
<polygon fill="none" stroke="#000000" points="352,-415.5 352,-450.5 624,-450.5 624,-415.5 352,-415.5"/>
<text text-anchor="start" x="358.8465" y="-428.3" font-family="Arial Bold" font-size="18.00" fill="#000000">public.book_authors</text>
<text text-anchor="start" x="519.8997" y="-428.3" font-family="Arial" font-size="14.00" fill="#000000"> </text>
<text text-anchor="start" x="523.7903" y="-428.3" font-family="Arial" font-size="14.00" fill="#666666">[BASE TABLE]</text>
<polygon fill="none" stroke="#000000" points="352,-385.5 352,-415.5 624,-415.5 624,-385.5 352,-385.5"/>
<text text-anchor="start" x="359" y="-396.9" font-family="Arial" font-size="14.00" fill="#000000">id </text>
<text text-anchor="start" x="373.7798" y="-396.9" font-family="Arial" font-size="14.00" fill="#666666">[bigint]</text>
<polygon fill="none" stroke="#000000" points="352,-355.5 352,-385.5 624,-385.5 624,-355.5 352,-355.5"/>
<text text-anchor="start" x="359" y="-366.9" font-family="Arial" font-size="14.00" fill="#000000">book_id </text>
<text text-anchor="start" x="411.9102" y="-366.9" font-family="Arial" font-size="14.00" fill="#666666">[bigint]</text>
<polygon fill="none" stroke="#000000" points="352,-325.5 352,-355.5 624,-355.5 624,-325.5 352,-325.5"/>
<text text-anchor="start" x="359" y="-336.9" font-family="Arial" font-size="14.00" fill="#000000">author_id </text>
<text text-anchor="start" x="421.244" y="-336.9" font-family="Arial" font-size="14.00" fill="#666666">[bigint]</text>
</g>
<!-- public.book_authors&#45;&gt;public.books -->
<g id="edge1" class="edge">
<title>public.book_authors:book_id&#45;&gt;public.books:id</title>
<path fill="none" stroke="#000000" d="M342.068,-368.9201C315.8617,-359.4366 329.093,-309.583 352,-283 422.6965,-200.9586 522.3035,-329.0414 593,-247 620.9973,-214.5099 635.8889,-150.5 593,-150.5"/>
<polygon fill="#000000" stroke="#000000" points="342.1242,-368.929 351.293,-374.9441 347.0621,-369.7145 352,-370.5 352,-370.5 352,-370.5 347.0621,-369.7145 352.707,-366.0559 342.1242,-368.929 342.1242,-368.929"/>
<text text-anchor="start" x="6.8235" y="-380.5" font-family="Arial" font-size="10.00" fill="#000000">FOREIGN KEY (book_id) REFERENCES books(id) ON DELETE CASCADE</text>
</g>
</g>
</svg>
