<?xml version="1.0" encoding="UTF-8" standalone="no"?>
<!DOCTYPE svg PUBLIC "-//W3C//DTD SVG 1.1//EN"
 "http://www.w3.org/Graphics/SVG/1.1/DTD/svg11.dtd">
<!-- Generated by graphviz version 2.40.1 (20161225.0304)
 -->
<!-- Title: db Pages: 1 -->
<svg width="3701pt" height="1163pt"
 viewBox="0.00 0.00 3701.00 1163.00" xmlns="http://www.w3.org/2000/svg" xmlns:xlink="http://www.w3.org/1999/xlink">
<g id="graph0" class="graph" transform="scale(1 1) rotate(0) translate(4 1159)">
<title>db</title>
<polygon fill="#ffffff" stroke="transparent" points="-4,4 -4,-1159 3697,-1159 3697,4 -4,4"/>
<!-- hdb_catalog.hdb_version -->
<g id="node1" class="node">
<title>hdb_catalog.hdb_version</title>
<polygon fill="#efefef" stroke="transparent" points="43,-1001.5 43,-1036.5 355,-1036.5 355,-1001.5 43,-1001.5"/>
<polygon fill="none" stroke="#000000" points="43,-1001.5 43,-1036.5 355,-1036.5 355,-1001.5 43,-1001.5"/>
<text text-anchor="start" x="49.8341" y="-1014.3" font-family="Arial Bold" font-size="18.00" fill="#000000">hdb_catalog.hdb_version</text>
<text text-anchor="start" x="250.9121" y="-1014.3" font-family="Arial" font-size="14.00" fill="#000000"> </text>
<text text-anchor="start" x="254.8027" y="-1014.3" font-family="Arial" font-size="14.00" fill="#666666">[BASE TABLE]</text>
<polygon fill="none" stroke="#000000" points="43,-971.5 43,-1001.5 355,-1001.5 355,-971.5 43,-971.5"/>
<text text-anchor="start" x="50" y="-982.9" font-family="Arial" font-size="14.00" fill="#000000">hasura_uuid </text>
<text text-anchor="start" x="130.9186" y="-982.9" font-family="Arial" font-size="14.00" fill="#666666">[uuid]</text>
<polygon fill="none" stroke="#000000" points="43,-941.5 43,-971.5 355,-971.5 355,-941.5 43,-941.5"/>
<text text-anchor="start" x="50" y="-952.9" font-family="Arial" font-size="14.00" fill="#000000">version </text>
<text text-anchor="start" x="99.0056" y="-952.9" font-family="Arial" font-size="14.00" fill="#666666">[text]</text>
<polygon fill="none" stroke="#000000" points="43,-911.5 43,-941.5 355,-941.5 355,-911.5 43,-911.5"/>
<text text-anchor="start" x="50" y="-922.9" font-family="Arial" font-size="14.00" fill="#000000">upgraded_on </text>
<text text-anchor="start" x="136.3772" y="-922.9" font-family="Arial" font-size="14.00" fill="#666666">[timestamp with time zone]</text>
<polygon fill="none" stroke="#000000" points="43,-881.5 43,-911.5 355,-911.5 355,-881.5 43,-881.5"/>
<text text-anchor="start" x="50" y="-892.9" font-family="Arial" font-size="14.00" fill="#000000">cli_state </text>
<text text-anchor="start" x="105.2328" y="-892.9" font-family="Arial" font-size="14.00" fill="#666666">[jsonb]</text>
<polygon fill="none" stroke="#000000" points="43,-851.5 43,-881.5 355,-881.5 355,-851.5 43,-851.5"/>
<text text-anchor="start" x="50" y="-862.9" font-family="Arial" font-size="14.00" fill="#000000">console_state </text>
<text text-anchor="start" x="140.2566" y="-862.9" font-family="Arial" font-size="14.00" fill="#666666">[jsonb]</text>
</g>
<!-- hdb_catalog.hdb_metadata -->
<g id="node2" class="node">
<title>hdb_catalog.hdb_metadata</title>
<polygon fill="#efefef" stroke="transparent" points="460,-971.5 460,-1006.5 789,-1006.5 789,-971.5 460,-971.5"/>
<polygon fill="none" stroke="#000000" points="460,-971.5 460,-1006.5 789,-1006.5 789,-971.5 460,-971.5"/>
<text text-anchor="start" x="466.8228" y="-984.3" font-family="Arial Bold" font-size="18.00" fill="#000000">hdb_catalog.hdb_metadata</text>
<text text-anchor="start" x="684.9234" y="-984.3" font-family="Arial" font-size="14.00" fill="#000000"> </text>
<text text-anchor="start" x="688.814" y="-984.3" font-family="Arial" font-size="14.00" fill="#666666">[BASE TABLE]</text>
<polygon fill="none" stroke="#000000" points="460,-941.5 460,-971.5 789,-971.5 789,-941.5 460,-941.5"/>
<text text-anchor="start" x="467" y="-952.9" font-family="Arial" font-size="14.00" fill="#000000">id </text>
<text text-anchor="start" x="481.7798" y="-952.9" font-family="Arial" font-size="14.00" fill="#666666">[integer]</text>
<polygon fill="none" stroke="#000000" points="460,-911.5 460,-941.5 789,-941.5 789,-911.5 460,-911.5"/>
<text text-anchor="start" x="467" y="-922.9" font-family="Arial" font-size="14.00" fill="#000000">metadata </text>
<text text-anchor="start" x="529.2454" y="-922.9" font-family="Arial" font-size="14.00" fill="#666666">[json]</text>
<polygon fill="none" stroke="#000000" points="460,-881.5 460,-911.5 789,-911.5 789,-881.5 460,-881.5"/>
<text text-anchor="start" x="467" y="-892.9" font-family="Arial" font-size="14.00" fill="#000000">resource_version </text>
<text text-anchor="start" x="578.2398" y="-892.9" font-family="Arial" font-size="14.00" fill="#666666">[integer]</text>
</g>
<!-- hdb_catalog.hdb_action_log -->
<g id="node3" class="node">
<title>hdb_catalog.hdb_action_log</title>
<polygon fill="#efefef" stroke="transparent" points="893,-1076.5 893,-1111.5 1229,-1111.5 1229,-1076.5 893,-1076.5"/>
<polygon fill="none" stroke="#000000" points="893,-1076.5 893,-1111.5 1229,-1111.5 1229,-1076.5 893,-1076.5"/>
<text text-anchor="start" x="899.8227" y="-1089.3" font-family="Arial Bold" font-size="18.00" fill="#000000">hdb_catalog.hdb_action_log</text>
<text text-anchor="start" x="1124.9235" y="-1089.3" font-family="Arial" font-size="14.00" fill="#000000"> </text>
<text text-anchor="start" x="1128.8141" y="-1089.3" font-family="Arial" font-size="14.00" fill="#666666">[BASE TABLE]</text>
<polygon fill="none" stroke="#000000" points="893,-1046.5 893,-1076.5 1229,-1076.5 1229,-1046.5 893,-1046.5"/>
<text text-anchor="start" x="900" y="-1057.9" font-family="Arial" font-size="14.00" fill="#000000">id </text>
<text text-anchor="start" x="914.7798" y="-1057.9" font-family="Arial" font-size="14.00" fill="#666666">[uuid]</text>
<polygon fill="none" stroke="#000000" points="893,-1016.5 893,-1046.5 1229,-1046.5 1229,-1016.5 893,-1016.5"/>
<text text-anchor="start" x="900" y="-1027.9" font-family="Arial" font-size="14.00" fill="#000000">action_name </text>
<text text-anchor="start" x="984.0266" y="-1027.9" font-family="Arial" font-size="14.00" fill="#666666">[text]</text>
<polygon fill="none" stroke="#000000" points="893,-986.5 893,-1016.5 1229,-1016.5 1229,-986.5 893,-986.5"/>
<text text-anchor="start" x="900" y="-997.9" font-family="Arial" font-size="14.00" fill="#000000">input_payload </text>
<text text-anchor="start" x="991.0378" y="-997.9" font-family="Arial" font-size="14.00" fill="#666666">[jsonb]</text>
<polygon fill="none" stroke="#000000" points="893,-956.5 893,-986.5 1229,-986.5 1229,-956.5 893,-956.5"/>
<text text-anchor="start" x="900" y="-967.9" font-family="Arial" font-size="14.00" fill="#000000">request_headers </text>
<text text-anchor="start" x="1008.9284" y="-967.9" font-family="Arial" font-size="14.00" fill="#666666">[jsonb]</text>
<polygon fill="none" stroke="#000000" points="893,-926.5 893,-956.5 1229,-956.5 1229,-926.5 893,-926.5"/>
<text text-anchor="start" x="900" y="-937.9" font-family="Arial" font-size="14.00" fill="#000000">session_variables </text>
<text text-anchor="start" x="1015.1318" y="-937.9" font-family="Arial" font-size="14.00" fill="#666666">[jsonb]</text>
<polygon fill="none" stroke="#000000" points="893,-896.5 893,-926.5 1229,-926.5 1229,-896.5 893,-896.5"/>
<text text-anchor="start" x="900" y="-907.9" font-family="Arial" font-size="14.00" fill="#000000">response_payload </text>
<text text-anchor="start" x="1018.2664" y="-907.9" font-family="Arial" font-size="14.00" fill="#666666">[jsonb]</text>
<polygon fill="none" stroke="#000000" points="893,-866.5 893,-896.5 1229,-896.5 1229,-866.5 893,-866.5"/>
<text text-anchor="start" x="900" y="-877.9" font-family="Arial" font-size="14.00" fill="#000000">errors </text>
<text text-anchor="start" x="940.4376" y="-877.9" font-family="Arial" font-size="14.00" fill="#666666">[jsonb]</text>
<polygon fill="none" stroke="#000000" points="893,-836.5 893,-866.5 1229,-866.5 1229,-836.5 893,-836.5"/>
<text text-anchor="start" x="900" y="-847.9" font-family="Arial" font-size="14.00" fill="#000000">created_at </text>
<text text-anchor="start" x="970.028" y="-847.9" font-family="Arial" font-size="14.00" fill="#666666">[timestamp with time zone]</text>
<polygon fill="none" stroke="#000000" points="893,-806.5 893,-836.5 1229,-836.5 1229,-806.5 893,-806.5"/>
<text text-anchor="start" x="900" y="-817.9" font-family="Arial" font-size="14.00" fill="#000000">response_received_at </text>
<text text-anchor="start" x="1041.6002" y="-817.9" font-family="Arial" font-size="14.00" fill="#666666">[timestamp with time zone]</text>
<polygon fill="none" stroke="#000000" points="893,-776.5 893,-806.5 1229,-806.5 1229,-776.5 893,-776.5"/>
<text text-anchor="start" x="900" y="-787.9" font-family="Arial" font-size="14.00" fill="#000000">status </text>
<text text-anchor="start" x="941.237" y="-787.9" font-family="Arial" font-size="14.00" fill="#666666">[text]</text>
</g>
<!-- hdb_catalog.hdb_cron_events -->
<g id="node4" class="node">
<title>hdb_catalog.hdb_cron_events</title>
<polygon fill="#efefef" stroke="transparent" points="1397,-559.5 1397,-594.5 1749,-594.5 1749,-559.5 1397,-559.5"/>
<polygon fill="none" stroke="#000000" points="1397,-559.5 1397,-594.5 1749,-594.5 1749,-559.5 1397,-559.5"/>
<text text-anchor="start" x="1403.8208" y="-572.3" font-family="Arial Bold" font-size="18.00" fill="#000000">hdb_catalog.hdb_cron_events</text>
<text text-anchor="start" x="1644.9254" y="-572.3" font-family="Arial" font-size="14.00" fill="#000000"> </text>
<text text-anchor="start" x="1648.816" y="-572.3" font-family="Arial" font-size="14.00" fill="#666666">[BASE TABLE]</text>
<polygon fill="none" stroke="#000000" points="1397,-529.5 1397,-559.5 1749,-559.5 1749,-529.5 1397,-529.5"/>
<text text-anchor="start" x="1404" y="-540.9" font-family="Arial" font-size="14.00" fill="#000000">id </text>
<text text-anchor="start" x="1418.7798" y="-540.9" font-family="Arial" font-size="14.00" fill="#666666">[text]</text>
<polygon fill="none" stroke="#000000" points="1397,-499.5 1397,-529.5 1749,-529.5 1749,-499.5 1397,-499.5"/>
<text text-anchor="start" x="1404" y="-510.9" font-family="Arial" font-size="14.00" fill="#000000">trigger_name </text>
<text text-anchor="start" x="1490.3478" y="-510.9" font-family="Arial" font-size="14.00" fill="#666666">[text]</text>
<polygon fill="none" stroke="#000000" points="1397,-469.5 1397,-499.5 1749,-499.5 1749,-469.5 1397,-469.5"/>
<text text-anchor="start" x="1404" y="-480.9" font-family="Arial" font-size="14.00" fill="#000000">scheduled_time </text>
<text text-anchor="start" x="1505.9158" y="-480.9" font-family="Arial" font-size="14.00" fill="#666666">[timestamp with time zone]</text>
<polygon fill="none" stroke="#000000" points="1397,-439.5 1397,-469.5 1749,-469.5 1749,-439.5 1397,-439.5"/>
<text text-anchor="start" x="1404" y="-450.9" font-family="Arial" font-size="14.00" fill="#000000">status </text>
<text text-anchor="start" x="1445.237" y="-450.9" font-family="Arial" font-size="14.00" fill="#666666">[text]</text>
<polygon fill="none" stroke="#000000" points="1397,-409.5 1397,-439.5 1749,-439.5 1749,-409.5 1397,-409.5"/>
<text text-anchor="start" x="1404" y="-420.9" font-family="Arial" font-size="14.00" fill="#000000">tries </text>
<text text-anchor="start" x="1434.331" y="-420.9" font-family="Arial" font-size="14.00" fill="#666666">[integer]</text>
<polygon fill="none" stroke="#000000" points="1397,-379.5 1397,-409.5 1749,-409.5 1749,-379.5 1397,-379.5"/>
<text text-anchor="start" x="1404" y="-390.9" font-family="Arial" font-size="14.00" fill="#000000">created_at </text>
<text text-anchor="start" x="1474.028" y="-390.9" font-family="Arial" font-size="14.00" fill="#666666">[timestamp with time zone]</text>
<polygon fill="none" stroke="#000000" points="1397,-349.5 1397,-379.5 1749,-379.5 1749,-349.5 1397,-349.5"/>
<text text-anchor="start" x="1404" y="-360.9" font-family="Arial" font-size="14.00" fill="#000000">next_retry_at </text>
<text text-anchor="start" x="1489.5792" y="-360.9" font-family="Arial" font-size="14.00" fill="#666666">[timestamp with time zone]</text>
</g>
<!-- hdb_catalog.hdb_cron_event_invocation_logs -->
<g id="node5" class="node">
<title>hdb_catalog.hdb_cron_event_invocation_logs</title>
<polygon fill="#efefef" stroke="transparent" points="1334,-1016.5 1334,-1051.5 1811,-1051.5 1811,-1016.5 1334,-1016.5"/>
<polygon fill="none" stroke="#000000" points="1334,-1016.5 1334,-1051.5 1811,-1051.5 1811,-1016.5 1334,-1016.5"/>
<text text-anchor="start" x="1340.8005" y="-1029.3" font-family="Arial Bold" font-size="18.00" fill="#000000">hdb_catalog.hdb_cron_event_invocation_logs</text>
<text text-anchor="start" x="1706.9457" y="-1029.3" font-family="Arial" font-size="14.00" fill="#000000"> </text>
<text text-anchor="start" x="1710.8363" y="-1029.3" font-family="Arial" font-size="14.00" fill="#666666">[BASE TABLE]</text>
<polygon fill="none" stroke="#000000" points="1334,-986.5 1334,-1016.5 1811,-1016.5 1811,-986.5 1334,-986.5"/>
<text text-anchor="start" x="1341" y="-997.9" font-family="Arial" font-size="14.00" fill="#000000">id </text>
<text text-anchor="start" x="1355.7798" y="-997.9" font-family="Arial" font-size="14.00" fill="#666666">[text]</text>
<polygon fill="none" stroke="#000000" points="1334,-956.5 1334,-986.5 1811,-986.5 1811,-956.5 1334,-956.5"/>
<text text-anchor="start" x="1341" y="-967.9" font-family="Arial" font-size="14.00" fill="#000000">event_id </text>
<text text-anchor="start" x="1397.8008" y="-967.9" font-family="Arial" font-size="14.00" fill="#666666">[text]</text>
<polygon fill="none" stroke="#000000" points="1334,-926.5 1334,-956.5 1811,-956.5 1811,-926.5 1334,-926.5"/>
<text text-anchor="start" x="1341" y="-937.9" font-family="Arial" font-size="14.00" fill="#000000">status </text>
<text text-anchor="start" x="1382.237" y="-937.9" font-family="Arial" font-size="14.00" fill="#666666">[integer]</text>
<polygon fill="none" stroke="#000000" points="1334,-896.5 1334,-926.5 1811,-926.5 1811,-896.5 1334,-896.5"/>
<text text-anchor="start" x="1341" y="-907.9" font-family="Arial" font-size="14.00" fill="#000000">request </text>
<text text-anchor="start" x="1391.5722" y="-907.9" font-family="Arial" font-size="14.00" fill="#666666">[json]</text>
<polygon fill="none" stroke="#000000" points="1334,-866.5 1334,-896.5 1811,-896.5 1811,-866.5 1334,-866.5"/>
<text text-anchor="start" x="1341" y="-877.9" font-family="Arial" font-size="14.00" fill="#000000">response </text>
<text text-anchor="start" x="1402.4642" y="-877.9" font-family="Arial" font-size="14.00" fill="#666666">[json]</text>
<polygon fill="none" stroke="#000000" points="1334,-836.5 1334,-866.5 1811,-866.5 1811,-836.5 1334,-836.5"/>
<text text-anchor="start" x="1341" y="-847.9" font-family="Arial" font-size="14.00" fill="#000000">created_at </text>
<text text-anchor="start" x="1411.028" y="-847.9" font-family="Arial" font-size="14.00" fill="#666666">[timestamp with time zone]</text>
</g>
<!-- hdb_catalog.hdb_cron_event_invocation_logs&#45;&gt;hdb_catalog.hdb_cron_events -->
<g id="edge1" class="edge">
<title>hdb_catalog.hdb_cron_event_invocation_logs:event_id&#45;&gt;hdb_catalog.hdb_cron_events:id</title>
<path fill="none" stroke="#000000" d="M1821.3601,-970.7741C1886.677,-961.0465 1853.7793,-855.8354 1811,-794 1699.1292,-632.2964 1508.8708,-799.7036 1397,-638 1373.3573,-603.8256 1355.4444,-544.5 1397,-544.5"/>
<polygon fill="#000000" stroke="#000000" points="1820.9755,-970.801 1810.6854,-967.011 1815.9878,-971.1505 1811,-971.5 1811,-971.5 1811,-971.5 1815.9878,-971.1505 1811.3146,-975.989 1820.9755,-970.801 1820.9755,-970.801"/>
<text text-anchor="start" x="1243.688" y="-981.5" font-family="Arial" font-size="10.00" fill="#000000">FOREIGN KEY (event_id) REFERENCES hdb_catalog.hdb_cron_events(id) ON UPDATE CASCADE ON DELETE CASCADE</text>
</g>
<!-- hdb_catalog.hdb_scheduled_events -->
<g id="node6" class="node">
<title>hdb_catalog.hdb_scheduled_events</title>
<polygon fill="#efefef" stroke="transparent" points="1977,-619.5 1977,-654.5 2376,-654.5 2376,-619.5 1977,-619.5"/>
<polygon fill="none" stroke="#000000" points="1977,-619.5 1977,-654.5 2376,-654.5 2376,-619.5 1977,-619.5"/>
<text text-anchor="start" x="1983.8074" y="-632.3" font-family="Arial Bold" font-size="18.00" fill="#000000">hdb_catalog.hdb_scheduled_events</text>
<text text-anchor="start" x="2271.9388" y="-632.3" font-family="Arial" font-size="14.00" fill="#000000"> </text>
<text text-anchor="start" x="2275.8294" y="-632.3" font-family="Arial" font-size="14.00" fill="#666666">[BASE TABLE]</text>
<polygon fill="none" stroke="#000000" points="1977,-589.5 1977,-619.5 2376,-619.5 2376,-589.5 1977,-589.5"/>
<text text-anchor="start" x="1984" y="-600.9" font-family="Arial" font-size="14.00" fill="#000000">id </text>
<text text-anchor="start" x="1998.7798" y="-600.9" font-family="Arial" font-size="14.00" fill="#666666">[text]</text>
<polygon fill="none" stroke="#000000" points="1977,-559.5 1977,-589.5 2376,-589.5 2376,-559.5 1977,-559.5"/>
<text text-anchor="start" x="1984" y="-570.9" font-family="Arial" font-size="14.00" fill="#000000">webhook_conf </text>
<text text-anchor="start" x="2078.1486" y="-570.9" font-family="Arial" font-size="14.00" fill="#666666">[json]</text>
<polygon fill="none" stroke="#000000" points="1977,-529.5 1977,-559.5 2376,-559.5 2376,-529.5 1977,-529.5"/>
<text text-anchor="start" x="1984" y="-540.9" font-family="Arial" font-size="14.00" fill="#000000">scheduled_time </text>
<text text-anchor="start" x="2085.9158" y="-540.9" font-family="Arial" font-size="14.00" fill="#666666">[timestamp with time zone]</text>
<polygon fill="none" stroke="#000000" points="1977,-499.5 1977,-529.5 2376,-529.5 2376,-499.5 1977,-499.5"/>
<text text-anchor="start" x="1984" y="-510.9" font-family="Arial" font-size="14.00" fill="#000000">retry_conf </text>
<text text-anchor="start" x="2050.1234" y="-510.9" font-family="Arial" font-size="14.00" fill="#666666">[json]</text>
<polygon fill="none" stroke="#000000" points="1977,-469.5 1977,-499.5 2376,-499.5 2376,-469.5 1977,-469.5"/>
<text text-anchor="start" x="1984" y="-480.9" font-family="Arial" font-size="14.00" fill="#000000">payload </text>
<text text-anchor="start" x="2036.9102" y="-480.9" font-family="Arial" font-size="14.00" fill="#666666">[json]</text>
<polygon fill="none" stroke="#000000" points="1977,-439.5 1977,-469.5 2376,-469.5 2376,-439.5 1977,-439.5"/>
<text text-anchor="start" x="1984" y="-450.9" font-family="Arial" font-size="14.00" fill="#000000">header_conf </text>
<text text-anchor="start" x="2065.7026" y="-450.9" font-family="Arial" font-size="14.00" fill="#666666">[json]</text>
<polygon fill="none" stroke="#000000" points="1977,-409.5 1977,-439.5 2376,-439.5 2376,-409.5 1977,-409.5"/>
<text text-anchor="start" x="1984" y="-420.9" font-family="Arial" font-size="14.00" fill="#000000">status </text>
<text text-anchor="start" x="2025.237" y="-420.9" font-family="Arial" font-size="14.00" fill="#666666">[text]</text>
<polygon fill="none" stroke="#000000" points="1977,-379.5 1977,-409.5 2376,-409.5 2376,-379.5 1977,-379.5"/>
<text text-anchor="start" x="1984" y="-390.9" font-family="Arial" font-size="14.00" fill="#000000">tries </text>
<text text-anchor="start" x="2014.331" y="-390.9" font-family="Arial" font-size="14.00" fill="#666666">[integer]</text>
<polygon fill="none" stroke="#000000" points="1977,-349.5 1977,-379.5 2376,-379.5 2376,-349.5 1977,-349.5"/>
<text text-anchor="start" x="1984" y="-360.9" font-family="Arial" font-size="14.00" fill="#000000">created_at </text>
<text text-anchor="start" x="2054.028" y="-360.9" font-family="Arial" font-size="14.00" fill="#666666">[timestamp with time zone]</text>
<polygon fill="none" stroke="#000000" points="1977,-319.5 1977,-349.5 2376,-349.5 2376,-319.5 1977,-319.5"/>
<text text-anchor="start" x="1984" y="-330.9" font-family="Arial" font-size="14.00" fill="#000000">next_retry_at </text>
<text text-anchor="start" x="2069.5792" y="-330.9" font-family="Arial" font-size="14.00" fill="#666666">[timestamp with time zone]</text>
<polygon fill="none" stroke="#000000" points="1977,-289.5 1977,-319.5 2376,-319.5 2376,-289.5 1977,-289.5"/>
<text text-anchor="start" x="1984" y="-300.9" font-family="Arial" font-size="14.00" fill="#000000">comment </text>
<text text-anchor="start" x="2045.4502" y="-300.9" font-family="Arial" font-size="14.00" fill="#666666">[text]</text>
</g>
<!-- hdb_catalog.hdb_scheduled_event_invocation_logs -->
<g id="node7" class="node">
<title>hdb_catalog.hdb_scheduled_event_invocation_logs</title>
<polygon fill="#efefef" stroke="transparent" points="1915,-1016.5 1915,-1051.5 2439,-1051.5 2439,-1016.5 1915,-1016.5"/>
<polygon fill="none" stroke="#000000" points="1915,-1016.5 1915,-1051.5 2439,-1051.5 2439,-1016.5 1915,-1016.5"/>
<text text-anchor="start" x="1921.7871" y="-1029.3" font-family="Arial Bold" font-size="18.00" fill="#000000">hdb_catalog.hdb_scheduled_event_invocation_logs</text>
<text text-anchor="start" x="2334.9591" y="-1029.3" font-family="Arial" font-size="14.00" fill="#000000"> </text>
<text text-anchor="start" x="2338.8497" y="-1029.3" font-family="Arial" font-size="14.00" fill="#666666">[BASE TABLE]</text>
<polygon fill="none" stroke="#000000" points="1915,-986.5 1915,-1016.5 2439,-1016.5 2439,-986.5 1915,-986.5"/>
<text text-anchor="start" x="1922" y="-997.9" font-family="Arial" font-size="14.00" fill="#000000">id </text>
<text text-anchor="start" x="1936.7798" y="-997.9" font-family="Arial" font-size="14.00" fill="#666666">[text]</text>
<polygon fill="none" stroke="#000000" points="1915,-956.5 1915,-986.5 2439,-986.5 2439,-956.5 1915,-956.5"/>
<text text-anchor="start" x="1922" y="-967.9" font-family="Arial" font-size="14.00" fill="#000000">event_id </text>
<text text-anchor="start" x="1978.8008" y="-967.9" font-family="Arial" font-size="14.00" fill="#666666">[text]</text>
<polygon fill="none" stroke="#000000" points="1915,-926.5 1915,-956.5 2439,-956.5 2439,-926.5 1915,-926.5"/>
<text text-anchor="start" x="1922" y="-937.9" font-family="Arial" font-size="14.00" fill="#000000">status </text>
<text text-anchor="start" x="1963.237" y="-937.9" font-family="Arial" font-size="14.00" fill="#666666">[integer]</text>
<polygon fill="none" stroke="#000000" points="1915,-896.5 1915,-926.5 2439,-926.5 2439,-896.5 1915,-896.5"/>
<text text-anchor="start" x="1922" y="-907.9" font-family="Arial" font-size="14.00" fill="#000000">request </text>
<text text-anchor="start" x="1972.5722" y="-907.9" font-family="Arial" font-size="14.00" fill="#666666">[json]</text>
<polygon fill="none" stroke="#000000" points="1915,-866.5 1915,-896.5 2439,-896.5 2439,-866.5 1915,-866.5"/>
<text text-anchor="start" x="1922" y="-877.9" font-family="Arial" font-size="14.00" fill="#000000">response </text>
<text text-anchor="start" x="1983.4642" y="-877.9" font-family="Arial" font-size="14.00" fill="#666666">[json]</text>
<polygon fill="none" stroke="#000000" points="1915,-836.5 1915,-866.5 2439,-866.5 2439,-836.5 1915,-836.5"/>
<text text-anchor="start" x="1922" y="-847.9" font-family="Arial" font-size="14.00" fill="#000000">created_at </text>
<text text-anchor="start" x="1992.028" y="-847.9" font-family="Arial" font-size="14.00" fill="#666666">[timestamp with time zone]</text>
</g>
<!-- hdb_catalog.hdb_scheduled_event_invocation_logs&#45;&gt;hdb_catalog.hdb_scheduled_events -->
<g id="edge2" class="edge">
<title>hdb_catalog.hdb_scheduled_event_invocation_logs:event_id&#45;&gt;hdb_catalog.hdb_scheduled_events:id</title>
<path fill="none" stroke="#000000" d="M1905.0144,-970.8115C1838.7687,-961.1628 1867.463,-852.456 1915,-794 2047.0425,-631.628 2243.9575,-860.372 2376,-698 2402.2184,-665.7593 2417.5556,-604.5 2376,-604.5"/>
<polygon fill="#000000" stroke="#000000" points="1905.0237,-970.812 1914.6904,-975.9893 1910.0118,-971.156 1915,-971.5 1915,-971.5 1915,-971.5 1910.0118,-971.156 1915.3096,-967.0107 1905.0237,-970.812 1905.0237,-970.812"/>
<text text-anchor="start" x="1471.625" y="-955.5" font-family="Arial" font-size="10.00" fill="#000000">FOREIGN KEY (event_id) REFERENCES hdb_catalog.hdb_scheduled_events(id) ON UPDATE CASCADE ON DELETE CASCADE</text>
</g>
<!-- hdb_catalog.hdb_schema_notifications -->
<g id="node8" class="node">
<title>hdb_catalog.hdb_schema_notifications</title>
<polygon fill="#efefef" stroke="transparent" points="2543,-1001.5 2543,-1036.5 2965,-1036.5 2965,-1001.5 2543,-1001.5"/>
<polygon fill="none" stroke="#000000" points="2543,-1001.5 2543,-1036.5 2965,-1036.5 2965,-1001.5 2543,-1001.5"/>
<text text-anchor="start" x="2549.818" y="-1014.3" font-family="Arial Bold" font-size="18.00" fill="#000000">hdb_catalog.hdb_schema_notifications</text>
<text text-anchor="start" x="2860.9282" y="-1014.3" font-family="Arial" font-size="14.00" fill="#000000"> </text>
<text text-anchor="start" x="2864.8188" y="-1014.3" font-family="Arial" font-size="14.00" fill="#666666">[BASE TABLE]</text>
<polygon fill="none" stroke="#000000" points="2543,-971.5 2543,-1001.5 2965,-1001.5 2965,-971.5 2543,-971.5"/>
<text text-anchor="start" x="2550" y="-982.9" font-family="Arial" font-size="14.00" fill="#000000">id </text>
<text text-anchor="start" x="2564.7798" y="-982.9" font-family="Arial" font-size="14.00" fill="#666666">[integer]</text>
<polygon fill="none" stroke="#000000" points="2543,-941.5 2543,-971.5 2965,-971.5 2965,-941.5 2543,-941.5"/>
<text text-anchor="start" x="2550" y="-952.9" font-family="Arial" font-size="14.00" fill="#000000">notification </text>
<text text-anchor="start" x="2620.7952" y="-952.9" font-family="Arial" font-size="14.00" fill="#666666">[json]</text>
<polygon fill="none" stroke="#000000" points="2543,-911.5 2543,-941.5 2965,-941.5 2965,-911.5 2543,-911.5"/>
<text text-anchor="start" x="2550" y="-922.9" font-family="Arial" font-size="14.00" fill="#000000">resource_version </text>
<text text-anchor="start" x="2661.2398" y="-922.9" font-family="Arial" font-size="14.00" fill="#666666">[integer]</text>
<polygon fill="none" stroke="#000000" points="2543,-881.5 2543,-911.5 2965,-911.5 2965,-881.5 2543,-881.5"/>
<text text-anchor="start" x="2550" y="-892.9" font-family="Arial" font-size="14.00" fill="#000000">instance_id </text>
<text text-anchor="start" x="2624.69" y="-892.9" font-family="Arial" font-size="14.00" fill="#666666">[uuid]</text>
<polygon fill="none" stroke="#000000" points="2543,-851.5 2543,-881.5 2965,-881.5 2965,-851.5 2543,-851.5"/>
<text text-anchor="start" x="2550" y="-862.9" font-family="Arial" font-size="14.00" fill="#000000">updated_at </text>
<text text-anchor="start" x="2623.9326" y="-862.9" font-family="Arial" font-size="14.00" fill="#666666">[timestamp with time zone]</text>
</g>
<!-- public.agents -->
<g id="node9" class="node">
<title>public.agents</title>
<polygon fill="#efefef" stroke="transparent" points="2935,-132.5 2935,-167.5 3152,-167.5 3152,-132.5 2935,-132.5"/>
<polygon fill="none" stroke="#000000" points="2935,-132.5 2935,-167.5 3152,-167.5 3152,-132.5 2935,-132.5"/>
<text text-anchor="start" x="2941.855" y="-145.3" font-family="Arial Bold" font-size="18.00" fill="#000000">public.agents</text>
<text text-anchor="start" x="3047.8912" y="-145.3" font-family="Arial" font-size="14.00" fill="#000000"> </text>
<text text-anchor="start" x="3051.7818" y="-145.3" font-family="Arial" font-size="14.00" fill="#666666">[BASE TABLE]</text>
<polygon fill="none" stroke="#000000" points="2935,-102.5 2935,-132.5 3152,-132.5 3152,-102.5 2935,-102.5"/>
<text text-anchor="start" x="2942" y="-113.9" font-family="Arial" font-size="14.00" fill="#000000">id </text>
<text text-anchor="start" x="2956.7798" y="-113.9" font-family="Arial" font-size="14.00" fill="#666666">[bigint]</text>
<polygon fill="none" stroke="#000000" points="2935,-72.5 2935,-102.5 3152,-102.5 3152,-72.5 2935,-72.5"/>
<text text-anchor="start" x="2942" y="-83.9" font-family="Arial" font-size="14.00" fill="#000000">name </text>
<text text-anchor="start" x="2980.899" y="-83.9" font-family="Arial" font-size="14.00" fill="#666666">[text]</text>
<polygon fill="none" stroke="#000000" points="2935,-42.5 2935,-72.5 3152,-72.5 3152,-42.5 2935,-42.5"/>
<text text-anchor="start" x="2942" y="-53.9" font-family="Arial" font-size="14.00" fill="#000000">email </text>
<text text-anchor="start" x="2979.3296" y="-53.9" font-family="Arial" font-size="14.00" fill="#666666">[text]</text>
</g>
<!-- public.authors -->
<g id="node10" class="node">
<title>public.authors</title>
<polygon fill="#efefef" stroke="transparent" points="2932,-514.5 2932,-549.5 3155,-549.5 3155,-514.5 2932,-514.5"/>
<polygon fill="none" stroke="#000000" points="2932,-514.5 2932,-549.5 3155,-549.5 3155,-514.5 2932,-514.5"/>
<text text-anchor="start" x="2938.8589" y="-527.3" font-family="Arial Bold" font-size="18.00" fill="#000000">public.authors</text>
<text text-anchor="start" x="3050.8873" y="-527.3" font-family="Arial" font-size="14.00" fill="#000000"> </text>
<text text-anchor="start" x="3054.7779" y="-527.3" font-family="Arial" font-size="14.00" fill="#666666">[BASE TABLE]</text>
<polygon fill="none" stroke="#000000" points="2932,-484.5 2932,-514.5 3155,-514.5 3155,-484.5 2932,-484.5"/>
<text text-anchor="start" x="2939" y="-495.9" font-family="Arial" font-size="14.00" fill="#000000">id </text>
<text text-anchor="start" x="2953.7798" y="-495.9" font-family="Arial" font-size="14.00" fill="#666666">[bigint]</text>
<polygon fill="none" stroke="#000000" points="2932,-454.5 2932,-484.5 3155,-484.5 3155,-454.5 2932,-454.5"/>
<text text-anchor="start" x="2939" y="-465.9" font-family="Arial" font-size="14.00" fill="#000000">name </text>
<text text-anchor="start" x="2977.899" y="-465.9" font-family="Arial" font-size="14.00" fill="#666666">[text]</text>
<polygon fill="none" stroke="#000000" points="2932,-424.5 2932,-454.5 3155,-454.5 3155,-424.5 2932,-424.5"/>
<text text-anchor="start" x="2939" y="-435.9" font-family="Arial" font-size="14.00" fill="#000000">website </text>
<text text-anchor="start" x="2990.3422" y="-435.9" font-family="Arial" font-size="14.00" fill="#666666">[text]</text>
<polygon fill="none" stroke="#000000" points="2932,-394.5 2932,-424.5 3155,-424.5 3155,-394.5 2932,-394.5"/>
<text text-anchor="start" x="2939" y="-405.9" font-family="Arial" font-size="14.00" fill="#000000">agent_id </text>
<text text-anchor="start" x="2996.5834" y="-405.9" font-family="Arial" font-size="14.00" fill="#666666">[bigint]</text>
</g>
<!-- public.authors&#45;&gt;public.agents -->
<g id="edge3" class="edge">
<title>public.authors:agent_id&#45;&gt;public.agents:id</title>
<path fill="none" stroke="#000000" d="M3043.6608,-384.3333C3037.8554,-299.7216 2959.1868,-299.078 2935,-211 2923.9959,-170.9279 2893.4444,-117.5 2935,-117.5"/>
<polygon fill="#000000" stroke="#000000" points="3043.6664,-384.5056 3039.5025,-394.6501 3043.8332,-389.5028 3044,-394.5 3044,-394.5 3044,-394.5 3043.8332,-389.5028 3048.4975,-394.3499 3043.6664,-384.5056 3043.6664,-384.5056"/>
<text text-anchor="start" x="2690.656" y="-404.5" font-family="Arial" font-size="10.00" fill="#000000">FOREIGN KEY (agent_id) REFERENCES agents(id) ON DELETE RESTRICT</text>
</g>
<!-- public.books -->
<g id="node11" class="node">
<title>public.books</title>
<polygon fill="#efefef" stroke="transparent" points="3259,-514.5 3259,-549.5 3470,-549.5 3470,-514.5 3259,-514.5"/>
<polygon fill="none" stroke="#000000" points="3259,-514.5 3259,-549.5 3470,-549.5 3470,-514.5 3259,-514.5"/>
<text text-anchor="start" x="3265.8592" y="-527.3" font-family="Arial Bold" font-size="18.00" fill="#000000">public.books</text>
<text text-anchor="start" x="3365.887" y="-527.3" font-family="Arial" font-size="14.00" fill="#000000"> </text>
<text text-anchor="start" x="3369.7776" y="-527.3" font-family="Arial" font-size="14.00" fill="#666666">[BASE TABLE]</text>
<polygon fill="none" stroke="#000000" points="3259,-484.5 3259,-514.5 3470,-514.5 3470,-484.5 3259,-484.5"/>
<text text-anchor="start" x="3266" y="-495.9" font-family="Arial" font-size="14.00" fill="#000000">id </text>
<text text-anchor="start" x="3280.7798" y="-495.9" font-family="Arial" font-size="14.00" fill="#666666">[bigint]</text>
<polygon fill="none" stroke="#000000" points="3259,-454.5 3259,-484.5 3470,-484.5 3470,-454.5 3259,-454.5"/>
<text text-anchor="start" x="3266" y="-465.9" font-family="Arial" font-size="14.00" fill="#000000">title </text>
<text text-anchor="start" x="3291.6676" y="-465.9" font-family="Arial" font-size="14.00" fill="#666666">[text]</text>
<polygon fill="none" stroke="#000000" points="3259,-424.5 3259,-454.5 3470,-454.5 3470,-424.5 3259,-424.5"/>
<text text-anchor="start" x="3266" y="-435.9" font-family="Arial" font-size="14.00" fill="#000000">description </text>
<text text-anchor="start" x="3337.568" y="-435.9" font-family="Arial" font-size="14.00" fill="#666666">[text]</text>
<polygon fill="none" stroke="#000000" points="3259,-394.5 3259,-424.5 3470,-424.5 3470,-394.5 3259,-394.5"/>
<text text-anchor="start" x="3266" y="-405.9" font-family="Arial" font-size="14.00" fill="#000000">cover </text>
<text text-anchor="start" x="3304.1164" y="-405.9" font-family="Arial" font-size="14.00" fill="#666666">[text]</text>
</g>
<!-- public.book_authors -->
<g id="node12" class="node">
<title>public.book_authors</title>
<polygon fill="#efefef" stroke="transparent" points="3069,-971.5 3069,-1006.5 3341,-1006.5 3341,-971.5 3069,-971.5"/>
<polygon fill="none" stroke="#000000" points="3069,-971.5 3069,-1006.5 3341,-1006.5 3341,-971.5 3069,-971.5"/>
<text text-anchor="start" x="3075.8465" y="-984.3" font-family="Arial Bold" font-size="18.00" fill="#000000">public.book_authors</text>
<text text-anchor="start" x="3236.8997" y="-984.3" font-family="Arial" font-size="14.00" fill="#000000"> </text>
<text text-anchor="start" x="3240.7903" y="-984.3" font-family="Arial" font-size="14.00" fill="#666666">[BASE TABLE]</text>
<polygon fill="none" stroke="#000000" points="3069,-941.5 3069,-971.5 3341,-971.5 3341,-941.5 3069,-941.5"/>
<text text-anchor="start" x="3076" y="-952.9" font-family="Arial" font-size="14.00" fill="#000000">id </text>
<text text-anchor="start" x="3090.7798" y="-952.9" font-family="Arial" font-size="14.00" fill="#666666">[bigint]</text>
<polygon fill="none" stroke="#000000" points="3069,-911.5 3069,-941.5 3341,-941.5 3341,-911.5 3069,-911.5"/>
<text text-anchor="start" x="3076" y="-922.9" font-family="Arial" font-size="14.00" fill="#000000">book_id </text>
<text text-anchor="start" x="3128.9102" y="-922.9" font-family="Arial" font-size="14.00" fill="#666666">[bigint]</text>
<polygon fill="none" stroke="#000000" points="3069,-881.5 3069,-911.5 3341,-911.5 3341,-881.5 3069,-881.5"/>
<text text-anchor="start" x="3076" y="-892.9" font-family="Arial" font-size="14.00" fill="#000000">author_id </text>
<text text-anchor="start" x="3138.244" y="-892.9" font-family="Arial" font-size="14.00" fill="#666666">[bigint]</text>
</g>
<!-- public.book_authors&#45;&gt;public.authors -->
<g id="edge4" class="edge">
<title>public.book_authors:author_id&#45;&gt;public.authors:id</title>
<path fill="none" stroke="#000000" d="M3058.6738,-896.0059C2906.5361,-880.3838 3331.8345,-499.5 3155,-499.5"/>
<polygon fill="#000000" stroke="#000000" points="3059.0114,-896.022 3068.7849,-900.9949 3064.0057,-896.261 3069,-896.5 3069,-896.5 3069,-896.5 3064.0057,-896.261 3069.2151,-892.0051 3059.0114,-896.022 3059.0114,-896.022"/>
<text text-anchor="start" x="3076.1565" y="-906.5" font-family="Arial" font-size="10.00" fill="#000000">FOREIGN KEY (author_id) REFERENCES authors(id) ON DELETE CASCADE</text>
</g>
<!-- public.book_authors&#45;&gt;public.books -->
<g id="edge5" class="edge">
<title>public.book_authors:book_id&#45;&gt;public.books:id</title>
<path fill="none" stroke="#000000" d="M3351.0818,-926.0644C3517.0879,-910.8013 3069.3402,-499.5 3259,-499.5"/>
<polygon fill="#000000" stroke="#000000" points="3350.9907,-926.0683 3340.8057,-922.0042 3345.9953,-926.2841 3341,-926.5 3341,-926.5 3341,-926.5 3345.9953,-926.2841 3341.1943,-930.9958 3350.9907,-926.0683 3350.9907,-926.0683"/>
<text text-anchor="start" x="3347.8235" y="-936.5" font-family="Arial" font-size="10.00" fill="#000000">FOREIGN KEY (book_id) REFERENCES books(id) ON DELETE CASCADE</text>
</g>
</g>
</svg>
